<?xml version="1.0" encoding="UTF-8" standalone="no"?>
<svg
   width="1024"
   height="1024"
   version="1.1"
   id="svg73"
   xmlns="http://www.w3.org/2000/svg"
   xmlns:svg="http://www.w3.org/2000/svg">
  <defs
     id="defs73" />
  <path
     fill="#0f509f"
     d="m 480.964,159.051 c 7.102,-4.859 15.297,-8.517 22.917,-12.527 16.026,-8.434 32.014,-16.685 48.396,-24.415 77.908,-36.7632 166.293,-75.3396 254.347,-58.8495 57.194,10.7109 102.323,36.6247 135.489,85.2245 14.033,20.563 23.454,44.148 30.564,67.869 2.919,9.74 5.898,19.504 7.994,29.461 11.329,53.808 10.954,114.263 7.277,168.993 -2.185,32.535 -5.594,64.896 -7.276,97.495 l -3.185,70.639 q -3.213,60.623 -10.955,120.836 c -1.783,13.116 -3.428,26.368 -5.894,39.374 -12.915,68.11 -37.43,148.556 -97.819,189.427 -53.666,36.321 -125.384,38.947 -187.144,26.887 -40.425,-7.893 -74.762,-20.19 -111.516,-38.674 -11.489,-5.777 -23.055,-11.521 -33.583,-18.958 -1.965,1.232 -4.036,2.642 -6.463,2.4 -1.555,-0.155 -3.088,-0.751 -4.052,-2.031 -1.502,-1.997 -1.576,-4.948 -1.127,-7.29 -8.689,-3.648 -20.358,-9.905 -27.56,-15.839 -10.335,-1.86 -21.308,-1.806 -31.845,-3.54 -37.681,-6.199 -73.144,-18.688 -107.049,-36.148 q -1.017,1.686 -2.061,3.356 c -17.968,28.686 -46.467,50.364 -79.703,57.783 -32.983,7.364 -65.909,0.684 -94.223,-17.464 q -1.334,-0.856 -2.647,-1.745 -1.312,-0.888 -2.603,-1.809 -1.291,-0.92 -2.558,-1.872 -1.268,-0.951 -2.512,-1.934 -1.244,-0.982 -2.464,-1.995 -1.22,-1.012 -2.414,-2.054 -1.195,-1.042 -2.364,-2.113 -1.169,-1.07 -2.311,-2.169 -1.142,-1.099 -2.257,-2.226 -1.116,-1.127 -2.203,-2.28 -1.087,-1.154 -2.146,-2.333 -1.059,-1.18 -2.088,-2.385 -1.03,-1.206 -2.03,-2.436 -1,-1.23 -1.969,-2.484 -0.97,-1.254 -1.908,-2.531 -0.939,-1.278 -1.846,-2.578 -0.907,-1.299 -1.782,-2.621 -0.875,-1.322 -1.718,-2.665 -0.843,-1.342 -1.652,-2.705 -0.81,-1.363 -1.586,-2.745 -0.776,-1.383 -1.517,-2.783 -0.742,-1.401 -1.45,-2.82 -0.707,-1.418 -1.38,-2.854 -0.673,-1.435 -1.31,-2.886 -0.638,-1.452 -1.239,-2.918 -0.602,-1.467 -1.168,-2.948 -0.566,-1.48 -1.095,-2.974 -0.529,-1.495 -1.022,-3.001 -0.493,-1.507 -0.949,-3.025 -0.455,-1.518 -0.874,-3.047 -0.418,-1.529 -0.8,-3.068 -0.381,-1.539 -0.724,-3.086 c -7.48,-34.637 1.023,-68.183 19.976,-97.521 -3.354,-2.674 -7.563,-4.71 -11.259,-6.914 -4.461,-2.66 -8.674,-5.592 -12.815,-8.718 C 82.9516,664.014 58.6036,631.739 46.8482,592.05 36.9149,558.514 37.7986,520.408 50.424,487.644 c 2.8369,-7.362 6.7501,-14.505 10.5223,-21.424 25.766,-47.258 71.1277,-85.532 115.2737,-115.323 6.08,-4.102 19.602,-13.912 26.104,-15.821 -17.801,-11.645 -33.896,-28.082 -43.315,-47.296 q -0.701,-1.396 -1.367,-2.808 -0.666,-1.413 -1.297,-2.841 -0.631,-1.429 -1.227,-2.872 -0.596,-1.444 -1.156,-2.902 -0.56,-1.458 -1.084,-2.929 -0.524,-1.471 -1.012,-2.955 -0.488,-1.483 -0.939,-2.978 -0.451,-1.495 -0.865,-3.001 -0.414,-1.506 -0.791,-3.022 -0.377,-1.515 -0.717,-3.039 -0.339,-1.525 -0.641,-3.057 -0.302,-1.532 -0.567,-3.071 -0.264,-1.54 -0.49,-3.085 -0.227,-1.545 -0.415,-3.095 -0.188,-1.551 -0.338,-3.105 -0.15,-1.555 -0.262,-3.112 -0.112,-1.558 -0.185,-3.118 -0.073,-1.56 -0.108,-3.121 -0.035,-1.562 -0.032,-3.123 0.004,-1.562 0.045,-3.123 0.042,-1.561 0.122,-3.121 0.081,-1.56 0.199,-3.117 0.119,-1.557 0.276,-3.111 0.156,-1.554 0.351,-3.103 0.195,-1.55 0.429,-3.094 0.233,-1.544 0.504,-3.082 0.271,-1.538 0.579,-3.069 0.309,-1.531 0.655,-3.054 0.347,-1.523 0.73,-3.037 0.384,-1.513 0.805,-3.017 0.42,-1.504 0.878,-2.997 0.458,-1.494 0.952,-2.975 c 10.358,-30.208 32.429,-52.888 60.865,-66.735 28.558,-13.908 63.86,-15.897 93.88,-5.449 q 2.377,0.829 4.719,1.754 2.341,0.925 4.643,1.945 2.302,1.021 4.56,2.134 2.258,1.114 4.468,2.319 2.211,1.204 4.37,2.499 2.16,1.294 4.265,2.676 2.104,1.381 4.151,2.848 2.046,1.466 4.031,3.015 1.985,1.549 3.905,3.178 1.919,1.629 3.771,3.335 1.851,1.706 3.632,3.486 1.78,1.781 3.486,3.632 1.706,1.852 3.334,3.772 1.629,1.919 3.178,3.904 1.549,1.985 3.015,4.032 1.467,2.046 2.848,4.151 c 3.79,5.859 6.763,12.135 9.815,18.396 6.588,-3.429 13.88,-5.872 20.882,-8.315 27.422,-9.571 52.518,-14.043 81.105,-18.172 z"
     id="path2" />
  <path
     fill="#53b5e4"
     d="m 480.964,159.051 c 7.102,-4.859 15.297,-8.517 22.917,-12.527 16.026,-8.434 32.014,-16.685 48.396,-24.415 77.908,-36.7632 166.293,-75.3396 254.347,-58.8495 57.194,10.7109 102.323,36.6247 135.489,85.2245 14.033,20.563 23.454,44.148 30.564,67.869 2.919,9.74 5.898,19.504 7.994,29.461 11.329,53.808 10.954,114.263 7.277,168.993 -2.185,32.535 -5.594,64.896 -7.276,97.495 l -3.185,70.639 q -3.213,60.623 -10.955,120.836 c -1.783,13.116 -3.428,26.368 -5.894,39.374 -12.915,68.11 -37.43,148.556 -97.819,189.427 -53.666,36.321 -125.384,38.947 -187.144,26.887 -40.425,-7.893 -74.762,-20.19 -111.516,-38.674 -11.489,-5.777 -23.055,-11.521 -33.583,-18.958 -1.965,1.232 -4.036,2.642 -6.463,2.4 -1.555,-0.155 -3.088,-0.751 -4.052,-2.031 -1.502,-1.997 -1.576,-4.948 -1.127,-7.29 -8.689,-3.648 -20.358,-9.905 -27.56,-15.839 19.444,0.534 38.664,0.665 58.047,-1.236 l 0.523,0.593 c 1.744,2.005 3.259,3.535 5.426,5.104 7.193,-2.319 13.64,-6.496 20.952,-8.595 5.931,-1.704 12.196,-2.513 18.222,-3.877 12.296,-2.782 24.839,-6.086 36.731,-10.293 54.891,-19.417 99.761,-47.618 140.937,-88.634 11.168,-11.125 21.661,-22.041 31.07,-34.719 62.91,-84.767 84.918,-175.153 69.475,-279.347 4.191,-1.572 8.767,-3.173 10.931,-7.464 0.777,-1.542 1.174,-3.454 0.385,-5.076 -0.501,-1.031 -1.44,-1.772 -2.482,-2.207 -4.088,-1.705 -8.495,0.497 -12.206,2.11 -5.381,-28.083 -15.805,-55.628 -28.279,-81.269 20.018,-11.698 36.507,-25.806 47.994,-46.245 q 0.648,-1.167 1.267,-2.349 0.619,-1.182 1.21,-2.378 0.59,-1.197 1.152,-2.408 0.561,-1.211 1.092,-2.435 0.532,-1.224 1.034,-2.46 0.501,-1.237 0.973,-2.485 0.471,-1.248 0.912,-2.508 0.442,-1.259 0.852,-2.529 0.41,-1.27 0.789,-2.549 0.38,-1.28 0.728,-2.568 0.348,-1.288 0.665,-2.585 0.317,-1.296 0.602,-2.599 0.285,-1.304 0.538,-2.614 0.254,-1.31 0.475,-2.626 0.222,-1.316 0.411,-2.637 0.19,-1.321 0.347,-2.646 0.157,-1.326 0.282,-2.654 0.125,-1.329 0.218,-2.66 0.093,-1.331 0.153,-2.664 0.06,-1.333 0.088,-2.667 0.028,-1.335 0.024,-2.669 -0.005,-1.334 -0.041,-2.668 -0.037,-1.334 -0.107,-2.667 -0.069,-1.333 -0.17,-2.663 -0.102,-1.331 -0.236,-2.658 -0.134,-1.328 -0.3,-2.652 -0.166,-1.324 -0.365,-2.644 -0.198,-1.32 -0.428,-2.634 -0.231,-1.315 -0.493,-2.623 -0.262,-1.308 -0.556,-2.61 -0.294,-1.302 -0.619,-2.596 -0.325,-1.294 -0.682,-2.58 c -9.002,-32.103 -29.038,-57.67 -58.169,-74.035 -24.352,-13.681 -54.955,-16.798 -81.709,-9.121 -31.28,8.977 -54.567,30.249 -70.116,58.268 -41.239,-30.922 -104.2,-48.362 -155.153,-51.621 -17.715,-1.133 -35.102,-0.194 -52.804,0.327 z"
     id="path3" />
  <path
     fill="#0f509f"
     d="m 518.934,894.912 c 4.605,-2.98 15.395,-9.211 20.794,-8.175 1.442,0.277 2.392,0.805 3.285,1.988 q 0.147,0.198 0.269,0.412 0.122,0.214 0.218,0.441 0.096,0.227 0.165,0.464 0.068,0.237 0.108,0.48 0.04,0.244 0.05,0.49 0.011,0.246 -0.008,0.492 -0.019,0.246 -0.067,0.488 -0.048,0.242 -0.124,0.476 c -1.384,4.188 -9.635,6.68 -13.048,9.365 -1.965,1.232 -4.036,2.642 -6.463,2.4 -1.555,-0.155 -3.088,-0.751 -4.052,-2.031 -1.502,-1.997 -1.576,-4.948 -1.127,-7.29 z"
     id="path4" />
  <path
     fill="#0f509f"
     d="m 895.329,331.853 c 0.592,0.002 1.332,-0.035 1.918,0.115 5.806,1.484 12.14,10.7 15.272,15.404 1.785,2.68 4.534,7.303 3.524,10.655 -0.683,2.267 -2.095,3.173 -3.965,4.422 -0.516,0.065 -0.78,0.112 -1.334,0.105 -1.45,-0.018 -2.357,-0.261 -3.432,-1.249 -3.342,-3.072 -5.433,-9.236 -8.095,-13.111 -1.823,-2.654 -4.01,-4.618 -6.142,-6.976 -1.175,-1.301 -2.461,-2.938 -2.146,-4.814 0.362,-2.154 2.762,-3.414 4.4,-4.551 z"
     id="path5" />
  <path
     fill="#0f509f"
     d="m 906.07,408.994 c 0.495,0.018 0.698,0.012 1.229,0.104 1.676,0.293 3.332,1.09 4.225,2.613 0.954,1.625 0.679,3.638 0.149,5.348 -2.247,7.26 -10.016,16.908 -16.744,20.331 l -0.551,-0.107 c -1.938,-0.364 -4.075,-1.114 -5.193,-2.888 -0.593,-0.942 -0.98,-2.096 -0.62,-3.21 0.189,-0.584 13.502,-18.984 14.729,-20.331 0.748,-0.821 1.8,-1.356 2.776,-1.86 z"
     id="path6" />
  <path
     fill="#0f509f"
     d="m 914.635,370.988 c 0.307,0.013 0.614,0.021 0.921,0.041 q 0.354,0.02 0.704,0.076 0.35,0.057 0.692,0.149 0.343,0.092 0.673,0.22 0.331,0.127 0.647,0.287 0.316,0.161 0.614,0.353 0.298,0.193 0.574,0.415 0.277,0.222 0.528,0.471 0.252,0.25 0.477,0.524 c 1.829,2.227 2.035,5.665 1.872,8.413 -0.374,6.305 -1.026,14.122 -5.986,18.535 -1.151,-0.022 -2.348,-0.025 -3.465,-0.335 -1.492,-0.413 -2.911,-1.195 -3.577,-2.673 -0.379,-0.842 -0.51,-1.844 -0.498,-2.761 0.037,-3.063 1.037,-6.12 1.327,-9.171 0.336,-3.532 -0.89,-7.586 0.298,-10.98 0.686,-1.958 2.491,-2.672 4.199,-3.564 z"
     id="path7" />
  <path
     fill="#53b5e4"
     d="m 139.883,704.449 c -3.354,-2.674 -7.563,-4.71 -11.259,-6.914 -4.461,-2.66 -8.674,-5.592 -12.815,-8.718 C 82.9516,664.014 58.6036,631.739 46.8482,592.05 36.9149,558.514 37.7986,520.408 50.424,487.644 c 2.8369,-7.362 6.7501,-14.505 10.5223,-21.424 25.766,-47.258 71.1277,-85.532 115.2737,-115.323 6.08,-4.102 19.602,-13.912 26.104,-15.821 -7.571,14.045 -15.979,27.441 -22.374,42.133 q -1.263,2.854 -2.476,5.73 -1.212,2.876 -2.373,5.774 -1.162,2.897 -2.271,5.814 -1.11,2.918 -2.167,5.854 -1.058,2.937 -2.063,5.892 -1.005,2.955 -1.958,5.927 -0.952,2.972 -1.852,5.961 -0.899,2.989 -1.746,5.993 -0.846,3.004 -1.639,6.023 -0.793,3.019 -1.532,6.052 -0.739,3.032 -1.424,6.077 -0.685,3.045 -1.316,6.102 -0.631,3.057 -1.208,6.125 -0.576,3.067 -1.098,6.144 -0.522,3.078 -0.989,6.164 -0.467,3.086 -0.88,6.18 -0.412,3.094 -0.769,6.194 -0.357,3.101 -0.66,6.208 -0.302,3.106 -0.549,6.218 -0.247,3.111 -0.438,6.226 -0.192,3.116 -0.328,6.234 -0.136,3.118 -0.217,6.238 -0.081,3.121 -0.106,6.242 -0.025,3.121 0.005,6.242 0.03,3.121 0.115,6.241 0.086,3.12 0.227,6.238 0.141,3.118 0.337,6.233 0.196,3.115 0.448,6.226 0.252,3.112 0.558,6.218 0.307,3.106 0.669,6.206 0.362,3.1 0.779,6.193 0.417,3.094 0.889,6.179 c 2.308,15.358 5.217,30.46 9.697,45.352 5.046,16.776 11.763,32.314 18.365,48.474 -17.696,9.74 -30.214,22.002 -42.097,38.066 z"
     id="path8" />
  <path
     fill="#0f509f"
     d="m 144.65,393.01 c 3.565,0.586 17.907,8.393 20.28,11.421 0.849,1.084 1.325,2.216 1.001,3.617 -0.47,2.032 -1.96,3.145 -3.634,4.177 -0.086,-0.011 -0.171,-0.024 -0.257,-0.032 -0.574,-0.058 -1.147,-0.107 -1.711,-0.239 -4.832,-1.134 -16.893,-6.98 -19.461,-11.352 -0.744,-1.266 -0.905,-2.366 -0.479,-3.79 0.635,-2.12 2.426,-2.942 4.261,-3.802 z"
     id="path9" />
  <path
     fill="#fefefe"
     d="m 499.812,172.717 c 11.161,-0.953 23.086,-0.229 34.259,0.528 53.452,3.624 105.983,19.677 150.797,49.354 -9.46,24.366 -9.578,50.557 -1.532,75.297 9.502,29.22 30.194,51.882 57.414,65.611 q 1.256,0.631 2.527,1.23 1.272,0.599 2.557,1.167 1.286,0.567 2.586,1.103 1.299,0.535 2.611,1.039 1.313,0.503 2.637,0.973 1.324,0.471 2.66,0.908 1.336,0.438 2.682,0.842 1.346,0.405 2.702,0.775 1.355,0.371 2.72,0.708 1.364,0.338 2.736,0.641 1.373,0.303 2.752,0.572 1.38,0.269 2.765,0.504 1.386,0.235 2.777,0.435 1.391,0.201 2.787,0.367 1.396,0.166 2.795,0.297 1.399,0.131 2.801,0.228 1.403,0.096 2.807,0.158 1.404,0.062 2.809,0.089 1.405,0.027 2.811,0.019 1.405,-0.008 2.81,-0.051 1.405,-0.042 2.808,-0.12 1.404,-0.077 2.805,-0.19 1.401,-0.112 2.798,-0.259 1.398,-0.147 2.792,-0.328 1.393,-0.182 2.782,-0.398 1.389,-0.216 2.772,-0.466 1.383,-0.251 2.759,-0.535 1.377,-0.285 2.746,-0.603 1.368,-0.319 2.729,-0.671 1.361,-0.353 2.712,-0.739 1.351,-0.386 2.693,-0.805 1.341,-0.42 2.672,-0.872 c 14.678,24.81 27.001,69.026 31.407,97.689 2.591,16.851 3.81,34.384 3.86,51.428 0.275,93.909 -38.001,180.372 -104.037,246.465 -9.708,9.716 -20.325,18.515 -31.157,26.938 -62.787,48.823 -138.795,73.416 -218.056,73.425 -52.311,-0.111 -105.38,-14.772 -151.221,-39.655 9.85,-30.275 13.746,-55.152 3.521,-86.374 q -0.51,-1.508 -1.056,-3.002 -0.546,-1.495 -1.128,-2.975 -0.583,-1.481 -1.201,-2.947 -0.618,-1.467 -1.272,-2.917 -0.654,-1.451 -1.343,-2.885 -0.689,-1.435 -1.412,-2.852 -0.724,-1.417 -1.482,-2.816 -0.758,-1.399 -1.55,-2.779 -0.791,-1.381 -1.617,-2.741 -0.825,-1.361 -1.683,-2.701 -0.858,-1.34 -1.748,-2.659 -0.89,-1.318 -1.813,-2.615 -0.922,-1.297 -1.875,-2.571 -0.954,-1.274 -1.938,-2.524 -0.984,-1.25 -1.999,-2.476 -1.014,-1.226 -2.058,-2.427 -1.044,-1.201 -2.117,-2.376 -1.073,-1.175 -2.174,-2.324 -1.101,-1.148 -2.23,-2.27 -1.129,-1.121 -2.285,-2.215 -1.155,-1.094 -2.337,-2.159 -1.182,-1.065 -2.39,-2.101 -1.208,-1.036 -2.44,-2.043 -1.233,-1.006 -2.489,-1.982 -1.257,-0.977 -2.537,-1.922 -1.28,-0.945 -2.583,-1.859 -1.302,-0.914 -2.627,-1.795 -1.325,-0.882 -2.67,-1.732 -1.346,-0.849 -2.712,-1.665 -1.365,-0.816 -2.751,-1.599 -1.385,-0.783 -2.789,-1.532 -1.404,-0.749 -2.826,-1.463 -2.236,-1.121 -4.517,-2.15 -2.28,-1.03 -4.6,-1.965 -2.32,-0.936 -4.676,-1.776 -2.357,-0.841 -4.745,-1.585 -2.389,-0.744 -4.805,-1.39 -2.417,-0.647 -4.858,-1.194 -2.441,-0.548 -4.903,-0.995 -2.461,-0.448 -4.938,-0.795 -2.478,-0.348 -4.968,-0.594 -2.489,-0.246 -4.987,-0.391 -2.497,-0.145 -4.998,-0.188 -2.502,-0.043 -5.003,0.016 -2.501,0.058 -4.997,0.218 -2.497,0.161 -4.985,0.422 -2.488,0.262 -4.963,0.624 -2.476,0.363 -4.934,0.826 c -8.03,1.549 -15.68,4.074 -23.439,6.604 q -3.471,-7.315 -6.56,-14.799 -3.088,-7.484 -5.786,-15.118 -2.698,-7.634 -4.999,-15.397 -2.3,-7.763 -4.196,-15.634 c -20.175,-86.621 -5.923,-182.011 41.263,-257.704 25.737,10.872 53.592,14.046 80.728,6.44 34.173,-9.577 60.316,-31.082 77.483,-61.958 15.043,-27.056 17.959,-57.279 9.519,-86.884 38.776,-16.49 74.48,-23.902 116.341,-26.433 z"
     id="path10" />
  <path
     fill="#0f509f"
     d="m 719.738,713.268 c -10.142,-7.287 -19.675,-15.38 -29.746,-22.763 -13.385,-9.811 -27.193,-18.932 -40.069,-29.43 -31.375,-25.582 -61.08,-53.051 -92.018,-79.124 -11.821,-9.962 -23.481,-20.385 -35.718,-29.822 -7.423,-5.725 -16.487,-10.791 -23.107,-17.327 -3.682,-3.636 -6.445,-8.802 -7.691,-13.805 -1.54,-6.185 -1.201,-11.599 1.007,-17.55 2.483,-6.694 6.593,-12.8 10.162,-18.951 L 517.683,458.1 c 17.928,-31.523 35.312,-63.221 53.961,-94.346 -0.719,16.82 -3.975,35.96 -6.589,52.685 -1.011,6.473 -2.563,13.082 -3.027,19.606 8.453,5.075 16.854,10.358 24.739,16.289 5.382,4.048 10.72,9.078 16.439,12.564 4.273,2.605 10.116,2.093 14.124,5.116 2.311,1.744 3.64,4.892 4.327,7.614 1.998,7.914 0.103,17.392 -0.035,25.557 -0.111,6.537 0.207,13.046 0.447,19.576 6.507,-1.971 11.997,-3.936 17.535,-8.016 l 0.692,0.244 0.183,1.447 c -4.016,4.144 -13.266,6.788 -18.822,8.495 -0.336,10.702 -0.934,19.699 -9.301,27.483 -4.54,4.224 -11.432,9.637 -17.275,11.919 4.938,4.613 9.147,10.129 13.474,15.31 l 18.073,21.458 c 31.348,37.141 60.625,75.986 93.11,112.167 z"
     id="path11" />
  <path
     fill="#FEFEFE"
     d="m 562.028,436.045 c 8.453,5.075 16.854,10.358 24.739,16.289 5.382,4.048 10.72,9.078 16.439,12.564 4.273,2.605 10.116,2.093 14.124,5.116 2.311,1.744 3.64,4.892 4.327,7.614 1.998,7.914 0.103,17.392 -0.035,25.557 -0.111,6.537 0.207,13.046 0.447,19.576 6.507,-1.971 11.997,-3.936 17.535,-8.016 l 0.692,0.244 0.183,1.447 c -4.016,4.144 -13.266,6.788 -18.822,8.495 -0.336,10.702 -0.934,19.699 -9.301,27.483 -4.54,4.224 -11.432,9.637 -17.275,11.919 l -0.458,-1.376 c -2.282,-1.9 -4.223,-4.625 -6.041,-6.964 -0.465,-0.501 -0.697,-0.994 -1.012,-1.595 -6.532,-3.888 -31.665,-36.535 -37.531,-44.38 1.002,-9.934 3.005,-19.637 4.615,-29.478 q 3.351,-21.406 6.979,-42.766 z"
     id="path12"
     style="fill:#fefefe;fill-opacity:1;stroke:#fefefe;stroke-opacity:1" />
  <path
     fill="#fefefe"
     d="m 588.582,555.993 c 9.806,-9.69 18.836,-24.073 31.324,-30.235 -0.684,9.865 -0.881,18.478 -8.973,25.549 -4.822,4.213 -10.737,8.484 -16.31,11.65 -2.282,-1.9 -4.223,-4.625 -6.041,-6.964 z"
     id="path13" />
  <path
     fill="#fefefe"
     d="m 549.01,527.694 c -1.176,-1.612 -2.782,-3.105 -3.715,-4.867 -0.836,-1.58 -0.05,-3.492 0.39,-5.096 23.1,28.194 47.468,55.347 71.062,83.123 15.977,18.809 31.219,38.217 47.277,56.987 5.564,5.884 11.132,12.146 15.845,18.745 q -9.806,-8.59 -20.027,-16.682 c -9.244,-7.275 -17.587,-15.599 -26.542,-23.217 q -33.843,-28.523 -67.128,-57.694 -13.877,-12.431 -27.953,-24.637 c -5.264,-4.573 -10.582,-9.812 -16.554,-13.428 4.242,0.25 8.437,0.569 12.608,-0.504 7.215,-1.856 11.107,-6.67 14.737,-12.73 z"
     id="path15" />
  <path
     fill="#0f509f"
     d="m 551.343,531.224 42.478,48.639 48.079,57.028 c 1.71,1.97 11.911,14.361 12.736,14.496 l -0.01,0.628 0.903,0.912 c -2.524,-0.915 -13.057,-11.589 -15.647,-14.057 -18.648,-17.938 -38.543,-34.451 -58.184,-51.262 l -49.447,-43.173 c 8.482,-2.402 13.705,-6.335 19.092,-13.211 z"
     id="path16" />
  <path
     fill="#fefefe"
     d="m 558.669,399.776 c 1.797,4.312 -12.584,84.336 -14.507,95.238 -7.211,-5.152 -14.485,-9.095 -23.21,-10.896 -0.045,-0.007 -0.091,-0.014 -0.136,-0.022 -3.167,-0.573 -6.327,-0.107 -9.505,0.19 6.643,-9.073 11.829,-20.091 17.36,-29.927 5.911,-10.512 12.387,-20.824 17.977,-31.493 3.895,-7.433 7.087,-16.385 12.021,-23.09 z"
     id="path17" />
  <path
     fill="#0f509f"
     d="m 552.386,420.429 c -0.325,8.297 -2.529,17.157 -3.884,25.365 q -3.344,21.55 -7.08,43.036 c -5.202,-3.024 -10.089,-5.488 -15.818,-7.34 -2.276,-0.762 -4.783,-1.067 -7.144,-1.505 11.577,-19.704 22.177,-39.938 33.926,-59.556 z"
     id="path18" />
  <path
     fill="#fefefe"
     d="m 517.319,496.721 q 0.401,-0.046 0.804,-0.073 0.403,-0.026 0.807,-0.033 0.403,-0.007 0.807,0.006 0.404,0.013 0.806,0.045 0.402,0.033 0.803,0.085 0.4,0.053 0.797,0.124 0.398,0.072 0.791,0.163 0.394,0.091 0.782,0.202 0.388,0.11 0.771,0.239 0.383,0.129 0.758,0.277 0.376,0.148 0.744,0.313 0.368,0.166 0.728,0.35 0.359,0.184 0.71,0.385 0.35,0.201 0.69,0.419 0.34,0.218 0.669,0.452 0.328,0.234 0.645,0.484 0.317,0.25 0.622,0.516 0.304,0.265 0.595,0.545 0.291,0.28 0.568,0.573 0.277,0.294 0.54,0.601 0.262,0.307 0.509,0.627 0.247,0.319 0.478,0.65 0.231,0.331 0.446,0.673 0.214,0.342 0.412,0.694 0.198,0.352 0.378,0.714 0.18,0.361 0.342,0.731 0.162,0.37 0.306,0.747 0.144,0.377 0.27,0.761 0.125,0.384 0.232,0.773 0.106,0.39 0.194,0.784 0.087,0.394 0.155,0.792 0.068,0.398 0.116,0.799 0.048,0.401 0.077,0.804 0.029,0.402 0.038,0.806 0.009,0.404 -0.002,0.808 -0.011,0.403 -0.041,0.806 -0.031,0.402 -0.081,0.803 -0.05,0.401 -0.12,0.798 -0.07,0.398 -0.159,0.792 -0.089,0.394 -0.197,0.783 -0.108,0.389 -0.235,0.772 -0.127,0.383 -0.273,0.76 -0.146,0.377 -0.31,0.746 -0.164,0.369 -0.345,0.729 -0.182,0.361 -0.381,0.712 -0.2,0.351 -0.416,0.692 -0.216,0.341 -0.448,0.671 -0.233,0.33 -0.482,0.649 -0.248,0.318 -0.512,0.624 -0.263,0.306 -0.542,0.598 -0.278,0.293 -0.57,0.571 -0.293,0.279 -0.598,0.543 -0.306,0.264 -0.624,0.512 -0.318,0.249 -0.648,0.482 -0.33,0.233 -0.671,0.449 -0.341,0.216 -0.692,0.416 -0.351,0.199 -0.711,0.381 -0.361,0.183 -0.729,0.347 -0.369,0.164 -0.746,0.31 -0.376,0.146 -0.759,0.273 -0.384,0.128 -0.773,0.236 -0.388,0.109 -0.782,0.198 -0.394,0.09 -0.792,0.16 -0.397,0.07 -0.798,0.12 -0.403,0.051 -0.809,0.082 -0.405,0.03 -0.811,0.041 -0.407,0.011 -0.813,0.002 -0.406,-0.009 -0.812,-0.038 -0.405,-0.029 -0.809,-0.078 -0.403,-0.049 -0.804,-0.118 -0.401,-0.069 -0.797,-0.158 -0.397,-0.088 -0.789,-0.196 -0.392,-0.108 -0.778,-0.235 -0.386,-0.127 -0.766,-0.273 -0.379,-0.146 -0.751,-0.31 -0.371,-0.165 -0.735,-0.347 -0.363,-0.183 -0.717,-0.383 -0.353,-0.2 -0.697,-0.418 -0.343,-0.217 -0.676,-0.451 -0.332,-0.234 -0.652,-0.484 -0.321,-0.251 -0.629,-0.516 -0.307,-0.266 -0.602,-0.546 -0.294,-0.28 -0.574,-0.575 -0.28,-0.295 -0.545,-0.603 -0.266,-0.308 -0.516,-0.628 -0.249,-0.321 -0.483,-0.654 -0.234,-0.332 -0.451,-0.676 -0.217,-0.343 -0.417,-0.697 -0.2,-0.354 -0.382,-0.718 -0.182,-0.363 -0.346,-0.735 -0.164,-0.372 -0.31,-0.751 -0.145,-0.38 -0.272,-0.766 -0.127,-0.386 -0.235,-0.778 -0.107,-0.392 -0.195,-0.789 -0.088,-0.397 -0.157,-0.798 -0.068,-0.4 -0.117,-0.804 -0.049,-0.404 -0.077,-0.809 -0.029,-0.405 -0.038,-0.812 -0.009,-0.406 0.003,-0.813 0.011,-0.406 0.042,-0.811 0.031,-0.405 0.083,-0.809 0.051,-0.403 0.122,-0.803 0.071,-0.4 0.161,-0.797 0.091,-0.396 0.201,-0.787 0.11,-0.392 0.239,-0.777 0.129,-0.386 0.277,-0.764 0.148,-0.379 0.314,-0.75 0.167,-0.37 0.351,-0.733 0.185,-0.362 0.387,-0.715 0.202,-0.352 0.421,-0.695 0.219,-0.342 0.455,-0.673 0.235,-0.331 0.487,-0.65 0.252,-0.319 0.519,-0.626 0.267,-0.306 0.549,-0.599 0.282,-0.293 0.578,-0.571 0.296,-0.279 0.606,-0.543 0.309,-0.263 0.631,-0.511 0.322,-0.249 0.656,-0.481 0.333,-0.231 0.678,-0.447 0.345,-0.215 0.7,-0.413 0.355,-0.198 0.719,-0.378 0.365,-0.181 0.737,-0.343 0.373,-0.162 0.753,-0.305 0.381,-0.144 0.768,-0.269 0.386,-0.124 0.779,-0.23 0.393,-0.105 0.79,-0.192 0.397,-0.086 0.798,-0.152 0.401,-0.066 0.805,-0.113 z"
     id="path19" />
  <path
     fill="#0f509f"
     d="m 514.291,298.716 2.181,-0.067 q 2.615,-0.053 5.23,-0.041 2.616,0.011 5.23,0.087 2.614,0.075 5.226,0.215 2.612,0.139 5.219,0.342 2.608,0.204 5.209,0.471 2.602,0.267 5.197,0.597 2.594,0.331 5.18,0.725 2.585,0.394 5.16,0.851 2.576,0.457 5.139,0.977 2.563,0.52 5.113,1.103 2.549,0.582 5.084,1.227 2.535,0.645 5.053,1.352 2.518,0.706 5.018,1.474 2.5,0.768 4.981,1.597 2.48,0.829 4.94,1.719 2.46,0.889 4.897,1.839 2.437,0.949 4.85,1.958 2.413,1.008 4.8,2.076 2.388,1.067 4.749,2.193 2.361,1.125 4.693,2.308 2.333,1.183 4.636,2.423 2.303,1.24 4.575,2.536 2.271,1.295 4.511,2.646 2.239,1.351 4.445,2.757 2.206,1.405 4.377,2.864 2.17,1.459 4.305,2.97 2.134,1.512 4.231,3.075 2.097,1.563 4.155,3.178 2.057,1.614 4.075,3.278 2.018,1.664 3.994,3.377 1.977,1.713 3.911,3.474 1.934,1.76 3.824,3.568 1.916,1.835 3.787,3.715 1.871,1.881 3.696,3.807 1.824,1.926 3.601,3.895 1.777,1.97 3.506,3.982 1.728,2.013 3.407,4.067 1.679,2.054 3.308,4.148 1.628,2.094 3.205,4.228 1.577,2.133 3.101,4.304 1.525,2.171 2.996,4.379 1.471,2.207 2.888,4.45 1.416,2.243 2.778,4.52 1.362,2.276 2.668,4.586 1.305,2.309 2.555,4.649 1.249,2.34 2.441,4.711 1.191,2.37 2.325,4.768 1.134,2.399 2.208,4.824 1.075,2.425 2.091,4.876 1.015,2.451 1.97,4.926 0.956,2.475 1.851,4.972 0.894,2.497 1.728,5.016 0.834,2.518 1.606,5.056 0.772,2.538 1.482,5.095 0.71,2.556 1.357,5.128 0.647,2.573 1.232,5.161 0.584,2.587 1.106,5.188 0.521,2.601 0.979,5.214 0.457,2.614 0.851,5.237 0.394,2.623 0.724,5.256 0.33,2.632 0.596,5.271 0.265,2.64 0.466,5.285 0.202,2.645 0.338,5.295 0.137,2.649 0.209,5.301 c 1.288,52.461 -15.195,110.989 -52.035,149.694 q -4.625,-5.161 -9.325,-10.254 c 6.665,-8.494 13.253,-16.874 18.785,-26.168 19.036,-31.981 28.523,-71.143 28.314,-108.208 q 0,-2.472 -0.06,-4.943 -0.06,-2.472 -0.181,-4.941 -0.12,-2.469 -0.301,-4.934 -0.181,-2.465 -0.422,-4.926 -0.241,-2.46 -0.542,-4.913 -0.301,-2.454 -0.662,-4.9 -0.361,-2.445 -0.782,-4.881 -0.42,-2.436 -0.9,-4.861 -0.48,-2.425 -1.019,-4.837 -0.539,-2.413 -1.137,-4.811 -0.598,-2.399 -1.254,-4.782 -0.657,-2.384 -1.371,-4.75 -0.714,-2.367 -1.486,-4.715 -0.772,-2.349 -1.601,-4.677 -0.829,-2.329 -1.715,-4.637 -0.886,-2.308 -1.828,-4.593 -0.941,-2.286 -1.939,-4.548 -0.997,-2.262 -2.05,-4.498 -1.052,-2.237 -2.159,-4.448 -1.107,-2.21 -2.267,-4.393 -1.16,-2.183 -2.374,-4.336 -1.213,-2.154 -2.479,-4.277 -1.265,-2.124 -2.583,-4.216 -1.317,-2.091 -2.685,-4.151 -1.368,-2.059 -2.785,-4.084 -1.418,-2.025 -2.885,-4.014 -1.467,-1.99 -2.982,-3.944 -1.515,-1.953 -3.077,-3.869 -1.562,-1.915 -3.171,-3.792 -1.608,-1.877 -3.262,-3.714 -1.654,-1.838 -3.353,-3.634 -1.698,-1.796 -3.44,-3.55 -1.797,-1.78 -3.638,-3.515 -1.841,-1.736 -3.724,-3.425 -1.883,-1.689 -3.807,-3.331 -1.925,-1.642 -3.889,-3.236 -1.964,-1.594 -3.968,-3.139 -2.003,-1.545 -4.043,-3.04 -2.041,-1.495 -4.118,-2.94 -2.077,-1.444 -4.189,-2.836 -2.112,-1.392 -4.258,-2.732 -2.146,-1.34 -4.324,-2.626 -2.178,-1.286 -4.388,-2.519 -2.209,-1.232 -4.448,-2.409 -2.24,-1.177 -4.507,-2.298 -2.268,-1.121 -4.562,-2.186 -2.295,-1.065 -4.615,-2.073 -2.32,-1.008 -4.665,-1.958 -2.344,-0.951 -4.712,-1.843 -2.367,-0.892 -4.755,-1.725 -2.389,-0.833 -4.797,-1.607 -2.409,-0.774 -4.836,-1.488 -2.426,-0.715 -4.87,-1.369 -2.444,-0.654 -4.903,-1.247 -2.459,-0.593 -4.932,-1.126 -2.473,-0.532 -4.959,-1.003 -2.485,-0.471 -4.981,-0.881 -2.497,-0.41 -5.002,-0.757 -2.506,-0.348 -5.02,-0.634 -2.513,-0.285 -5.033,-0.509 -2.52,-0.223 -5.044,-0.385 -2.525,-0.161 -5.053,-0.259 -2.528,-0.099 -5.057,-0.135 -2.529,-0.036 -5.059,-0.01 c -52.228,0.4 -103.322,23.751 -139.763,60.811 q -1.779,1.838 -3.512,3.718 -1.733,1.881 -3.42,3.804 -1.686,1.923 -3.325,3.887 -1.639,1.963 -3.229,3.967 -1.59,2.003 -3.13,4.045 -1.54,2.042 -3.03,4.121 -1.49,2.079 -2.928,4.193 -1.438,2.115 -2.824,4.265 -1.386,2.15 -2.719,4.333 -1.332,2.183 -2.611,4.398 -1.279,2.215 -2.502,4.461 -1.224,2.245 -2.393,4.521 -1.168,2.275 -2.28,4.578 -1.112,2.303 -2.167,4.633 -1.056,2.33 -2.053,4.685 -0.998,2.355 -1.937,4.734 -0.94,2.378 -1.821,4.78 -0.881,2.401 -1.702,4.823 -0.822,2.422 -1.584,4.863 -0.762,2.442 -1.463,4.901 -0.702,2.46 -1.343,4.936 -0.641,2.476 -1.221,4.967 -0.58,2.491 -1.099,4.995 -0.519,2.505 -0.976,5.021 -0.457,2.517 -0.852,5.044 -0.395,2.526 -0.728,5.062 -0.333,2.536 -0.604,5.079 -0.27,2.544 -0.478,5.093 -0.208,2.549 -0.354,5.103 -0.145,2.553 -0.228,5.109 -0.082,2.557 -0.102,5.114 -0.02,2.558 0.023,5.115 c 2.305,40.155 13.804,77.266 37.408,110.219 30.923,43.17 80.976,74.745 133.407,83.297 q 2.202,0.365 4.412,0.682 2.21,0.317 4.426,0.585 2.216,0.269 4.437,0.49 2.222,0.22 4.447,0.392 2.226,0.172 4.455,0.295 2.229,0.124 4.46,0.199 2.231,0.075 4.463,0.101 2.233,0.027 4.465,0.004 2.232,-0.022 4.463,-0.093 2.231,-0.071 4.46,-0.19 2.23,-0.119 4.456,-0.287 2.226,-0.168 4.447,-0.384 2.222,-0.217 4.439,-0.481 2.216,-0.265 4.427,-0.578 2.21,-0.313 4.413,-0.674 2.203,-0.36 4.397,-0.769 2.195,-0.409 4.38,-0.865 2.185,-0.457 4.36,-0.96 2.175,-0.504 4.338,-1.055 2.163,-0.552 4.314,-1.15 2.151,-0.598 4.288,-1.242 2.137,-0.645 4.26,-1.336 2.122,-0.691 4.23,-1.429 2.107,-0.737 4.197,-1.52 2.091,-0.782 4.164,-1.611 2.073,-0.828 4.127,-1.701 2.055,-0.873 4.09,-1.791 2.035,-0.917 4.049,-1.879 2.015,-0.962 4.008,-1.967 1.993,-1.005 3.964,-2.054 1.971,-1.048 3.918,-2.14 1.948,-1.091 3.871,-2.224 c 8.936,-5.316 16.76,-11.872 25.162,-17.927 3.232,3.126 6.605,6.119 9.865,9.219 -7.324,7.446 -17.183,14.308 -26.049,19.761 -31.555,19.407 -66.102,29.716 -103.032,31.537 q -2.692,0.12 -5.385,0.174 -2.694,0.055 -5.388,0.043 -2.695,-0.012 -5.388,-0.089 -2.693,-0.078 -5.384,-0.221 -2.69,-0.144 -5.376,-0.353 -2.687,-0.209 -5.367,-0.484 -2.68,-0.275 -5.353,-0.615 -2.673,-0.34 -5.336,-0.746 -2.664,-0.406 -5.317,-0.876 -2.653,-0.471 -5.293,-1.006 -2.641,-0.536 -5.267,-1.136 -2.627,-0.599 -5.238,-1.263 -2.612,-0.664 -5.206,-1.392 -2.594,-0.727 -5.17,-1.518 -2.575,-0.791 -5.131,-1.645 -2.555,-0.853 -5.089,-1.769 -2.534,-0.916 -5.045,-1.894 -2.511,-0.977 -4.997,-2.016 -2.486,-1.038 -4.946,-2.138 -2.459,-1.099 -4.892,-2.258 -2.432,-1.159 -4.835,-2.377 -2.403,-1.218 -4.776,-2.495 -2.373,-1.276 -4.714,-2.611 -2.34,-1.334 -4.648,-2.725 -2.307,-1.391 -4.58,-2.838 -2.272,-1.447 -4.509,-2.95 -2.237,-1.502 -4.436,-3.059 -2.199,-1.556 -4.359,-3.166 -2.161,-1.61 -4.281,-3.272 -2.121,-1.662 -4.2,-3.376 -2.079,-1.714 -4.116,-3.478 -2.036,-1.764 -4.029,-3.577 -1.981,-1.793 -3.917,-3.635 -1.936,-1.843 -3.825,-3.732 -1.89,-1.889 -3.732,-3.825 -1.842,-1.936 -3.636,-3.916 -1.794,-1.981 -3.538,-4.006 -1.744,-2.024 -3.437,-4.092 -1.693,-2.067 -3.335,-4.175 -1.641,-2.109 -3.23,-4.258 -1.589,-2.148 -3.124,-4.335 -1.535,-2.188 -3.015,-4.412 -1.48,-2.225 -2.905,-4.486 -1.425,-2.26 -2.793,-4.556 -1.368,-2.295 -2.679,-4.624 -1.311,-2.328 -2.564,-4.689 -1.253,-2.36 -2.447,-4.75 -1.193,-2.391 -2.328,-4.811 -1.134,-2.419 -2.208,-4.866 -1.074,-2.447 -2.087,-4.92 -1.013,-2.472 -1.964,-4.969 -0.952,-2.498 -1.841,-5.017 -0.889,-2.52 -1.715,-5.062 -0.827,-2.541 -1.59,-5.102 -0.763,-2.56 -1.462,-5.139 -0.7,-2.58 -1.335,-5.175 -0.636,-2.596 -1.206,-5.206 -0.571,-2.611 -1.077,-5.235 -0.506,-2.623 -0.947,-5.259 -0.44,-2.636 -0.816,-5.281 -0.375,-2.646 -0.684,-5.3 -0.31,-2.654 -0.554,-5.316 -0.243,-2.661 -0.421,-5.327 -0.178,-2.666 -0.289,-5.336 -0.099,-2.658 -0.134,-5.317 -0.034,-2.66 -0.002,-5.32 0.031,-2.659 0.128,-5.317 0.096,-2.658 0.259,-5.313 0.162,-2.655 0.389,-5.305 0.227,-2.65 0.52,-5.293 0.292,-2.644 0.649,-5.28 0.358,-2.635 0.78,-5.261 0.422,-2.626 0.908,-5.241 0.486,-2.615 1.037,-5.217 0.551,-2.602 1.165,-5.19 0.614,-2.588 1.292,-5.16 0.678,-2.572 1.419,-5.126 0.741,-2.555 1.544,-5.09 0.804,-2.536 1.669,-5.051 0.866,-2.515 1.793,-5.008 0.927,-2.493 1.915,-4.962 0.989,-2.469 2.037,-4.914 1.049,-2.444 2.157,-4.862 1.109,-2.418 2.276,-4.807 1.168,-2.39 2.394,-4.751 1.225,-2.36 2.509,-4.689 1.284,-2.33 2.624,-4.627 1.341,-2.298 2.737,-4.561 1.397,-2.264 2.848,-4.492 1.452,-2.229 2.958,-4.421 1.507,-2.192 3.066,-4.347 1.56,-2.154 3.172,-4.27 1.612,-2.115 3.276,-4.191 1.663,-2.075 3.377,-4.108 1.715,-2.034 3.478,-4.025 1.764,-1.991 3.576,-3.938 c 40.953,-44.627 92.626,-67.372 152.83,-69.954 z"
     id="path20" />
  <path
     fill="#0f509f"
     d="m 509.257,270.214 q 1.363,-0.078 2.727,-0.123 3.012,-0.096 6.026,-0.117 3.014,-0.021 6.028,0.032 3.013,0.053 6.024,0.181 3.012,0.128 6.019,0.33 3.007,0.202 6.008,0.479 3.002,0.276 5.995,0.627 2.994,0.351 5.978,0.775 2.983,0.425 5.956,0.923 2.972,0.498 5.932,1.07 2.959,0.571 5.903,1.216 2.944,0.645 5.872,1.362 2.927,0.717 5.836,1.506 2.909,0.79 5.797,1.651 2.888,0.861 5.755,1.793 2.866,0.932 5.708,1.935 2.842,1.003 5.659,2.076 2.817,1.072 5.606,2.215 2.789,1.142 5.549,2.352 2.76,1.211 5.489,2.49 2.73,1.278 5.427,2.624 2.696,1.346 5.359,2.758 2.663,1.412 5.29,2.889 2.627,1.478 5.217,3.019 2.589,1.542 5.14,3.148 2.551,1.605 5.061,3.273 2.511,1.668 4.979,3.398 2.468,1.73 4.893,3.52 2.425,1.79 4.804,3.64 2.38,1.849 4.713,3.757 2.334,1.908 4.619,3.873 2.285,1.965 4.521,3.986 2.237,2.02 4.422,4.096 5.835,5.521 11.276,11.432 5.441,5.911 10.461,12.183 5.02,6.272 9.595,12.875 4.575,6.604 8.684,13.507 c 23.895,39.273 34.554,79.154 35.958,124.996 1.863,60.847 -18.994,123.565 -61.091,168.281 -2.452,-2.521 -4.683,-5.17 -6.829,-7.952 8.834,-11.755 17.497,-22.771 25.099,-35.452 21.271,-35.487 31.872,-78.019 32.316,-119.222 q 0.019,-2.9 -0.034,-5.8 -0.052,-2.9 -0.176,-5.797 -0.123,-2.898 -0.318,-5.791 -0.194,-2.894 -0.46,-5.782 -0.265,-2.888 -0.601,-5.769 -0.337,-2.881 -0.743,-5.752 -0.407,-2.872 -0.884,-5.732 -0.477,-2.861 -1.024,-5.709 -0.547,-2.848 -1.164,-5.682 -0.617,-2.834 -1.302,-5.652 -0.686,-2.818 -1.441,-5.618 -0.755,-2.8 -1.579,-5.581 -0.823,-2.781 -1.714,-5.541 -0.891,-2.76 -1.85,-5.497 -0.959,-2.737 -1.984,-5.45 -1.026,-2.713 -2.117,-5.4 -1.092,-2.687 -2.249,-5.346 -1.158,-2.66 -2.38,-5.29 -1.222,-2.63 -2.508,-5.229 -1.286,-2.6 -2.636,-5.167 -1.35,-2.567 -2.762,-5.1 -1.412,-2.533 -2.886,-5.031 -1.474,-2.498 -3.008,-4.959 -1.535,-2.46 -3.129,-4.883 -1.595,-2.423 -3.248,-4.805 -1.654,-2.383 -3.365,-4.724 -1.712,-2.342 -3.48,-4.641 -1.768,-2.298 -3.592,-4.553 -1.824,-2.255 -3.703,-4.464 -1.879,-2.21 -3.812,-4.372 -1.932,-2.163 -3.917,-4.277 -1.985,-2.115 -4.021,-4.18 -1.973,-2.008 -3.994,-3.967 -2.022,-1.959 -4.09,-3.868 -2.069,-1.91 -4.183,-3.768 -2.114,-1.858 -4.273,-3.664 -2.159,-1.806 -4.362,-3.559 -2.202,-1.753 -4.447,-3.452 -2.244,-1.699 -4.53,-3.342 -2.285,-1.644 -4.61,-3.231 -2.324,-1.588 -4.687,-3.118 -2.363,-1.53 -4.762,-3.002 -2.399,-1.473 -4.834,-2.886 -2.434,-1.413 -4.902,-2.766 -2.469,-1.354 -4.969,-2.647 -2.5,-1.293 -5.032,-2.524 -2.531,-1.232 -5.091,-2.401 -2.561,-1.17 -5.149,-2.277 -2.588,-1.106 -5.203,-2.15 -2.614,-1.043 -5.253,-2.022 -2.639,-0.979 -5.302,-1.894 -2.662,-0.915 -5.345,-1.764 -2.684,-0.849 -5.388,-1.633 -2.703,-0.784 -5.425,-1.502 -2.722,-0.717 -5.461,-1.368 -2.738,-0.651 -5.492,-1.236 -2.754,-0.584 -5.521,-1.101 -2.767,-0.516 -5.546,-0.966 -2.779,-0.449 -5.568,-0.83 -2.788,-0.381 -5.586,-0.695 -2.797,-0.313 -5.602,-0.558 -2.804,-0.245 -5.613,-0.421 -2.81,-0.177 -5.622,-0.285 -2.813,-0.108 -5.628,-0.147 c -64.568,-0.564 -123.825,24.798 -169.624,70.011 -10.76,10.622 -20.06,22.814 -28.272,35.484 q -2.344,3.54 -4.56,7.162 -2.215,3.622 -4.298,7.322 -2.083,3.7 -4.032,7.472 -1.948,3.772 -3.76,7.613 -1.811,3.84 -3.482,7.743 -1.672,3.903 -3.202,7.864 -1.53,3.96 -2.916,7.974 -1.386,4.013 -2.626,8.073 -1.241,4.061 -2.334,8.164 -1.093,4.103 -2.038,8.242 -0.945,4.139 -1.74,8.31 -0.794,4.171 -1.438,8.368 -0.644,4.197 -1.137,8.414 -0.492,4.217 -0.832,8.449 -0.34,4.233 -0.527,8.474 -0.187,4.242 -0.221,8.488 c -0.145,48.556 15.446,98.951 44.749,137.941 37.834,50.341 94.93,85.662 157.483,94.462 q 2.529,0.37 5.066,0.684 2.536,0.315 5.079,0.574 2.543,0.259 5.091,0.462 2.548,0.204 5.1,0.352 2.551,0.148 5.106,0.24 2.554,0.093 5.11,0.129 2.556,0.037 5.112,0.018 2.556,-0.019 5.11,-0.094 2.555,-0.075 5.108,-0.205 2.553,-0.131 5.102,-0.317 2.549,-0.186 5.094,-0.428 2.545,-0.241 5.083,-0.539 2.539,-0.297 5.07,-0.649 2.532,-0.352 5.055,-0.76 2.524,-0.407 5.038,-0.869 2.513,-0.463 5.017,-0.98 2.503,-0.517 4.994,-1.088 2.491,-0.572 4.97,-1.198 2.478,-0.625 4.942,-1.305 2.464,-0.679 4.913,-1.413 2.448,-0.733 4.88,-1.519 2.432,-0.786 4.847,-1.625 2.414,-0.84 4.81,-1.731 2.395,-0.892 4.771,-1.835 2.375,-0.944 4.729,-1.939 2.355,-0.995 4.687,-2.042 2.332,-1.046 4.641,-2.143 2.308,-1.096 4.593,-2.243 2.284,-1.147 4.543,-2.344 2.258,-1.196 4.49,-2.442 2.232,-1.245 4.437,-2.539 2.204,-1.293 4.38,-2.635 c 10.259,-6.406 19.53,-14.305 29.175,-21.576 q 2.197,1.649 4.186,3.543 1.989,1.895 3.743,4.009 c -10.14,8.413 -20.914,16.854 -32.056,23.899 -33.261,21.03 -72.793,33.216 -111.966,35.994 q -3.026,0.202 -6.056,0.33 -3.031,0.127 -6.063,0.18 -3.032,0.054 -6.065,0.032 -3.033,-0.021 -6.064,-0.117 -3.032,-0.096 -6.06,-0.266 -3.028,-0.17 -6.051,-0.415 -3.023,-0.245 -6.039,-0.564 -3.016,-0.318 -6.023,-0.711 -3.008,-0.393 -6.004,-0.86 -2.997,-0.466 -5.981,-1.006 -2.985,-0.54 -5.955,-1.154 -2.97,-0.613 -5.925,-1.299 -2.954,-0.686 -5.89,-1.444 -2.937,-0.759 -5.854,-1.589 -2.917,-0.83 -5.813,-1.732 -2.895,-0.902 -5.768,-1.874 -2.873,-0.973 -5.721,-2.016 -2.848,-1.042 -5.669,-2.155 -2.822,-1.113 -5.615,-2.294 -2.793,-1.181 -5.557,-2.431 -2.763,-1.25 -5.495,-2.567 -2.732,-1.318 -5.43,-2.702 -2.699,-1.384 -5.363,-2.833 -2.664,-1.45 -5.291,-2.965 -2.628,-1.515 -5.217,-3.094 -2.59,-1.579 -5.14,-3.221 -2.549,-1.642 -5.058,-3.346 -2.509,-1.705 -4.975,-3.47 -2.466,-1.765 -4.888,-3.591 -2.422,-1.825 -4.799,-3.709 -2.376,-1.885 -4.706,-3.827 -2.329,-1.942 -4.61,-3.941 -2.27,-1.969 -4.491,-3.994 -2.221,-2.024 -4.392,-4.101 -2.171,-2.078 -4.291,-4.208 -2.119,-2.13 -4.186,-4.311 -2.068,-2.182 -4.081,-4.412 -2.013,-2.231 -3.971,-4.511 -1.959,-2.279 -3.861,-4.605 -1.902,-2.327 -3.747,-4.699 -1.844,-2.372 -3.631,-4.789 -1.786,-2.416 -3.513,-4.875 -1.727,-2.46 -3.393,-4.96 -1.667,-2.501 -3.272,-5.042 -1.604,-2.54 -3.147,-5.119 -1.542,-2.579 -3.021,-5.195 -1.479,-2.616 -2.894,-5.267 -1.415,-2.651 -2.765,-5.336 -1.35,-2.685 -2.633,-5.402 -1.284,-2.717 -2.501,-5.464 -1.218,-2.748 -2.367,-5.524 -1.15,-2.777 -2.232,-5.58 -1.082,-2.804 -2.095,-5.633 -1.013,-2.829 -1.956,-5.682 -0.944,-2.853 -1.818,-5.728 -0.874,-2.876 -1.677,-5.771 -0.804,-2.896 -1.536,-5.81 -0.733,-2.914 -1.394,-5.846 -0.661,-2.931 -1.251,-5.878 -0.59,-2.947 -1.107,-5.907 -0.518,-2.96 -0.963,-5.932 -0.445,-2.972 -0.817,-5.953 -0.373,-2.982 -0.673,-5.972 -0.299,-2.991 -0.526,-5.987 -0.19,-3.048 -0.304,-6.099 -0.115,-3.052 -0.154,-6.105 -0.038,-3.053 -0.002,-6.107 0.036,-3.053 0.148,-6.105 0.112,-3.051 0.3,-6.099 0.187,-3.048 0.45,-6.09 0.262,-3.042 0.6,-6.077 0.337,-3.035 0.75,-6.061 0.412,-3.025 0.9,-6.04 0.487,-3.014 1.048,-6.016 0.562,-3.001 1.197,-5.988 0.636,-2.987 1.345,-5.957 0.709,-2.97 1.491,-5.922 0.783,-2.951 1.638,-5.883 0.854,-2.931 1.782,-5.841 0.927,-2.909 1.926,-5.795 0.998,-2.885 2.068,-5.746 1.07,-2.86 2.21,-5.692 1.14,-2.833 2.35,-5.637 1.21,-2.804 2.488,-5.577 1.279,-2.773 2.626,-5.513 1.347,-2.741 2.761,-5.447 1.414,-2.706 2.894,-5.377 1.481,-2.671 3.027,-5.304 1.546,-2.633 3.157,-5.228 1.61,-2.594 3.285,-5.147 1.674,-2.554 3.411,-5.066 1.737,-2.511 3.535,-4.979 1.798,-2.468 3.657,-4.89 1.859,-2.423 3.777,-4.799 1.918,-2.376 3.895,-4.704 1.976,-2.328 4.009,-4.606 c 44.428,-50.552 104.961,-78.05 171.615,-82.219 z"
     id="path21" />
  <path
     fill="#0f509f"
     d="m 511.545,317.07 18.131,0.542 c 0.721,10.93 0.066,22.18 0.022,33.144 -0.03,7.656 0.808,16.264 -0.363,23.776 -0.241,1.544 -1.043,2.71 -1.934,3.959 -2.239,1.461 -4.425,2.398 -7.148,2.397 -2.264,-10e-4 -4.5,-0.803 -6.095,-2.445 -0.981,-1.011 -1.94,-2.404 -2.263,-3.792 -1.409,-6.054 -0.497,-13.892 -0.479,-20.118 z"
     id="path22" />
  <path
     fill="#0f509f"
     d="m 517.547,648.054 c 0.486,-0.044 0.975,-0.072 1.464,-0.082 2.838,-0.058 5.915,0.574 7.961,2.689 0.768,0.794 1.247,1.73 1.45,2.821 1.114,5.979 0.455,12.966 0.434,19.043 q -0.08,19.347 -0.376,38.692 c -2.112,0.22 -4.253,0.265 -6.374,0.371 -3.591,0.151 -7.193,0.183 -10.786,0.266 0.167,-19.331 -0.691,-38.971 0.238,-58.259 1.672,-2.736 3.14,-4.023 5.989,-5.541 z"
     id="path23" />
  <path
     fill="#0f509f"
     d="m 651.972,508.102 c 20.98,0.396 42.041,0.063 63.026,0.01 -0.004,5.862 0.018,11.718 -0.228,17.577 -9.696,-0.85 -19.526,-0.713 -29.254,-0.801 -11.139,-0.101 -22.306,-0.349 -33.441,-0.044 -0.154,-5.592 -0.251,-11.148 -0.103,-16.742 z"
     id="path24" />
  <path
     fill="#0f509f"
     d="m 325.631,509.111 c 8.144,-0.346 16.395,-0.084 24.549,-0.077 10.26,0.008 20.563,-0.175 30.816,0.214 2.391,1.968 4.304,4.557 4.638,7.716 0.295,2.784 -0.56,4.874 -2.249,7.024 -1.062,0.683 -2.111,1.224 -3.373,1.41 -5.758,0.847 -12.376,0.173 -18.2,0.114 l -36.734,-0.411 c -0.024,-5.31 -0.228,-10.728 0.553,-15.99 z"
     id="path25" />
  <path
     fill="#0f509f"
     d="m 591.55,333.355 c 3.451,1.798 6.96,3.447 10.49,5.083 -5.375,8.003 -7.574,17.742 -12.93,25.773 -0.15,0.095 -0.291,0.204 -0.45,0.284 -1.328,0.673 -3.078,0.443 -4.463,0.033 -1.621,-0.479 -2.912,-1.517 -3.625,-3.063 -1.904,-4.122 8.744,-22.396 10.742,-27.494 z"
     id="path26" />
  <path
     fill="#0f509f"
     d="m 399.037,625.951 c 1.668,0.295 3.384,0.598 4.525,1.996 0.719,0.883 1.035,1.915 0.958,3.045 -0.355,5.236 -14.432,19.338 -18.587,22.929 -0.94,0.813 -0.841,0.841 -2.05,0.757 q -3.437,-3.114 -6.917,-6.18 c 5.259,-5.891 15.724,-19.597 22.071,-22.547 z"
     id="path27" />
  <path
     fill="#0f509f"
     d="m 673.508,575.957 c 7.7,0.97 19.085,6.988 26.528,10.131 -1.096,3.697 -2.549,7.066 -4.575,10.344 -5.06,-1.825 -23.583,-8.659 -25.935,-12.953 -0.643,-1.173 -0.889,-2.222 -0.398,-3.513 0.785,-2.063 2.546,-3.012 4.38,-4.009 z"
     id="path28" />
  <path
     fill="#0f509f"
     d="m 447.348,332.497 c 2.496,2.213 10.55,21.967 11.2,25.588 -0.252,1.26 -0.631,1.925 -1.599,2.8 -1.939,1.753 -5.01,1.851 -7.443,1.615 -3.448,-4.416 -9.624,-19.612 -12.114,-25.455 q 4.961,-2.311 9.956,-4.548 z"
     id="path29" />
  <path
     fill="#0f509f"
     d="m 584.356,666.49 c 1.024,-0.022 2.406,-0.167 3.402,0.091 4.067,1.054 12.33,20.525 14.487,24.991 l -5.169,2.88 c -1.291,0.78 -2.447,1.323 -3.863,1.841 -3.058,-3.034 -12.194,-20.721 -12.851,-24.976 0.648,-2.606 1.771,-3.485 3.994,-4.827 z"
     id="path30" />
  <path
     fill="#0f509f"
     d="m 696.398,435.997 c 2.733,1.143 4.201,6.592 5.304,9.22 -7.998,4.141 -16.367,8.163 -24.665,11.663 -1.987,-0.817 -4.214,-2.17 -5.133,-4.218 -0.544,-1.213 -0.409,-2.325 0.136,-3.494 2.478,-5.316 18.653,-11.145 24.358,-13.171 z"
     id="path31" />
  <path
     fill="#0f509f"
     d="m 343.485,433.227 c 5.435,2.049 20.586,8.686 23.482,13.32 0.729,1.167 1.031,2.457 0.592,3.804 -0.661,2.035 -2.37,3.187 -4.07,4.298 -4.929,0.074 -19.547,-8.46 -24.91,-11.178 1.517,-3.496 3.084,-6.895 4.906,-10.244 z"
     id="path32" />
  <path
     fill="#0f509f"
     d="m 362.298,575.461 c 1.104,-0.045 2.171,-0.046 3.248,0.225 1.53,0.385 3.09,1.675 3.795,3.1 0.602,1.217 0.55,2.203 0.072,3.451 -1.915,5.007 -18.04,11.511 -23.278,14.066 l -1.144,0.41 c -2.619,-1.189 -4.006,-6.183 -5.111,-8.746 6.999,-4.69 15.032,-8.424 22.418,-12.506 z"
     id="path33" />
  <path
     fill="#0f509f"
     d="m 655.269,373.483 c 2.866,2.417 5.421,5.472 8.021,8.184 q -9.996,8.988 -20.25,17.68 c -0.674,0.112 -1.362,0.247 -2.05,0.244 q -0.267,-0.003 -0.532,-0.034 -0.265,-0.03 -0.526,-0.087 -0.26,-0.057 -0.514,-0.139 -0.254,-0.083 -0.497,-0.192 -0.244,-0.108 -0.476,-0.24 -0.232,-0.133 -0.449,-0.288 -0.217,-0.155 -0.417,-0.331 -0.201,-0.176 -0.382,-0.372 c -0.916,-1.005 -1.467,-1.95 -1.356,-3.351 0.459,-5.801 14.954,-16.595 19.428,-21.074 z"
     id="path34" />
  <path
     fill="#0f509f"
     d="m 451.427,666.453 c 1.026,-0.082 2.113,-0.203 3.137,-0.069 1.41,0.185 2.824,0.949 3.601,2.167 1.093,1.714 0.811,3.964 0.286,5.814 -0.866,3.049 -9.458,19.737 -11.619,20.89 -2.96,-1.586 -5.996,-3.05 -8.997,-4.558 3.311,-6.87 7.872,-19.54 13.592,-24.244 z"
     id="path35" />
  <path
     fill="#0f509f"
     d="m 384.363,376.31 c 4.279,3.703 19.199,15.665 19.771,20.926 0.14,1.287 -0.051,2.294 -0.912,3.301 -1.41,1.65 -3.308,1.915 -5.342,2.181 -5.703,-2.499 -15.577,-14.11 -20.411,-18.965 2.464,-2.341 4.664,-4.883 6.894,-7.443 z"
     id="path36" />
  <path
     fill="#fefefe"
     d="m 783.456,158.761 q 2.539,-0.158 5.083,-0.191 2.545,-0.033 5.087,0.059 2.543,0.092 5.078,0.308 2.535,0.217 5.056,0.557 2.522,0.341 5.024,0.805 2.501,0.464 4.977,1.051 2.476,0.586 4.92,1.293 2.444,0.707 4.851,1.533 2.406,0.826 4.769,1.77 2.363,0.943 4.677,2.001 2.314,1.058 4.573,2.229 2.259,1.17 4.458,2.45 2.199,1.28 4.332,2.666 2.134,1.386 4.197,2.876 2.063,1.489 4.05,3.078 1.987,1.589 3.894,3.273 1.907,1.685 3.729,3.461 1.822,1.776 3.554,3.639 1.733,1.863 3.372,3.809 1.639,1.946 3.181,3.97 1.541,2.024 2.982,4.122 1.44,2.097 2.776,4.263 1.335,2.165 2.563,4.394 1.228,2.228 2.345,4.514 1.116,2.286 2.12,4.625 1.003,2.338 1.891,4.722 0.887,2.385 1.656,4.81 0.77,2.425 1.419,4.885 0.649,2.46 1.177,4.949 0.528,2.489 0.933,5.001 0.405,2.512 0.686,5.041 0.281,2.529 0.438,5.068 0.157,2.54 0.189,5.084 0.032,2.544 -0.061,5.086 -0.093,2.543 -0.311,5.078 -0.218,2.535 -0.559,5.056 -0.342,2.522 -0.807,5.023 -0.466,2.502 -1.053,4.977 -0.587,2.476 -1.295,4.92 -0.709,2.443 -1.536,4.849 -0.827,2.407 -1.772,4.769 -0.944,2.363 -2.003,4.676 -1.059,2.314 -2.231,4.572 -1.171,2.259 -2.452,4.457 -1.281,2.199 -2.668,4.331 -1.388,2.133 -2.878,4.196 -1.49,2.062 -3.08,4.048 -1.59,1.987 -3.275,3.893 -1.685,1.906 -3.462,3.727 -1.777,1.822 -3.641,3.553 -1.864,1.732 -3.811,3.37 -1.947,1.638 -3.971,3.179 -2.025,1.541 -4.123,2.98 -2.098,1.439 -4.264,2.774 -2.167,1.335 -4.396,2.562 -2.229,1.226 -4.515,2.342 -2.287,1.116 -4.626,2.118 -2.338,1.003 -4.723,1.889 -2.385,0.886 -4.811,1.655 -2.425,0.768 -4.886,1.416 -2.46,0.648 -4.949,1.175 -2.489,0.527 -5.002,0.93 -2.512,0.404 -5.041,0.684 -2.528,0.28 -5.068,0.436 -2.538,0.156 -5.081,0.186 -2.542,0.031 -5.084,-0.063 -2.541,-0.094 -5.074,-0.312 -2.534,-0.219 -5.053,-0.561 -2.52,-0.343 -5.02,-0.808 -2.5,-0.466 -4.974,-1.054 -2.474,-0.587 -4.916,-1.296 -2.442,-0.708 -4.847,-1.536 -2.404,-0.827 -4.765,-1.771 -2.361,-0.944 -4.673,-2.003 -2.312,-1.059 -4.569,-2.231 -2.257,-1.171 -4.454,-2.451 -2.197,-1.28 -4.329,-2.667 -2.131,-1.387 -4.192,-2.876 -2.061,-1.49 -4.046,-3.079 -1.986,-1.589 -3.891,-3.273 -1.905,-1.684 -3.725,-3.46 -1.82,-1.776 -3.551,-3.638 -1.731,-1.863 -3.368,-3.809 -1.638,-1.945 -3.178,-3.969 -1.54,-2.024 -2.979,-4.12 -1.438,-2.097 -2.773,-4.261 -1.334,-2.165 -2.561,-4.393 -1.226,-2.227 -2.342,-4.512 -1.116,-2.285 -2.118,-4.622 -1.002,-2.337 -1.889,-4.72 -0.886,-2.384 -1.655,-4.808 -0.768,-2.424 -1.417,-4.883 -0.648,-2.458 -1.176,-4.946 -0.527,-2.487 -0.932,-4.998 -0.404,-2.51 -0.685,-5.038 -0.281,-2.527 -0.438,-5.065 -0.157,-2.538 -0.189,-5.081 -0.032,-2.542 0.061,-5.084 0.093,-2.541 0.31,-5.074 0.218,-2.534 0.559,-5.054 0.341,-2.52 0.806,-5.02 0.464,-2.5 1.051,-4.974 0.587,-2.474 1.294,-4.917 0.707,-2.442 1.534,-4.847 0.826,-2.405 1.769,-4.767 0.943,-2.361 2.001,-4.674 1.058,-2.312 2.228,-4.57 1.17,-2.257 2.45,-4.455 1.279,-2.197 2.665,-4.33 1.385,-2.132 2.874,-4.193 1.489,-2.062 3.077,-4.048 1.588,-1.986 3.271,-3.892 1.683,-1.906 3.458,-3.727 1.775,-1.821 3.637,-3.552 1.863,-1.732 3.807,-3.37 1.945,-1.639 3.968,-3.18 2.023,-1.54 4.119,-2.98 2.096,-1.44 4.26,-2.775 2.164,-1.336 4.391,-2.563 2.227,-1.228 4.512,-2.344 2.284,-1.117 4.621,-2.121 2.336,-1.003 4.719,-1.89 2.383,-0.888 4.807,-1.658 2.423,-0.769 4.882,-1.419 2.458,-0.65 4.946,-1.178 2.487,-0.528 4.997,-0.934 2.511,-0.406 5.038,-0.688 2.527,-0.282 5.065,-0.44 z"
     id="path37" />
  <path
     fill="#0f509f"
     d="m 783.094,163.272 q 2.426,-0.171 4.858,-0.224 2.432,-0.052 4.863,0.016 2.432,0.067 4.857,0.254 2.425,0.187 4.838,0.492 2.413,0.306 4.808,0.73 2.396,0.424 4.767,0.965 2.372,0.541 4.713,1.197 2.343,0.657 4.649,1.428 2.307,0.771 4.574,1.655 2.266,0.883 4.486,1.877 2.22,0.993 4.389,2.095 2.168,1.101 4.28,2.308 2.112,1.207 4.162,2.516 2.051,1.309 4.034,2.717 1.983,1.408 3.895,2.912 1.912,1.504 3.747,3.1 1.836,1.596 3.591,3.28 1.755,1.684 3.425,3.452 1.67,1.769 3.252,3.617 1.581,1.848 3.069,3.772 1.489,1.923 2.881,3.918 1.393,1.994 2.685,4.055 1.293,2.06 2.483,4.182 1.19,2.121 2.274,4.298 1.084,2.178 2.06,4.406 0.976,2.228 1.842,4.501 0.865,2.273 1.618,4.586 0.752,2.313 1.391,4.66 0.638,2.347 1.16,4.723 0.522,2.376 0.927,4.774 0.405,2.399 0.691,4.814 0.287,2.415 0.454,4.842 0.167,2.427 0.216,4.858 0.048,2.432 -0.024,4.864 -0.071,2.431 -0.262,4.856 -0.191,2.425 -0.5,4.837 -0.31,2.413 -0.738,4.807 -0.427,2.395 -0.972,4.765 -0.545,2.371 -1.206,4.712 -0.66,2.34 -1.435,4.646 -0.775,2.306 -1.662,4.571 -0.887,2.264 -1.885,4.483 -0.997,2.218 -2.102,4.385 -1.105,2.167 -2.315,4.277 -1.21,2.11 -2.522,4.158 -1.313,2.048 -2.724,4.029 -1.411,1.981 -2.918,3.89 -1.507,1.909 -3.106,3.742 -1.599,1.833 -3.286,3.586 -1.687,1.752 -3.458,3.419 -1.771,1.667 -3.622,3.246 -1.851,1.578 -3.777,3.063 -1.926,1.486 -3.923,2.875 -1.996,1.389 -4.059,2.678 -2.063,1.289 -4.186,2.476 -2.123,1.186 -4.302,2.267 -2.179,1.081 -4.409,2.053 -2.229,0.972 -4.504,1.834 -2.275,0.862 -4.589,1.611 -2.314,0.749 -4.662,1.383 -2.348,0.634 -4.725,1.152 -2.376,0.519 -4.775,0.919 -2.399,0.401 -4.815,0.684 -2.416,0.282 -4.843,0.446 -2.422,0.163 -4.849,0.208 -2.427,0.044 -4.853,-0.031 -2.426,-0.074 -4.845,-0.268 -2.42,-0.194 -4.827,-0.506 -2.407,-0.311 -4.796,-0.741 -2.389,-0.429 -4.755,-0.976 -2.365,-0.546 -4.7,-1.207 -2.336,-0.661 -4.636,-1.436 -2.3,-0.776 -4.56,-1.662 -2.259,-0.887 -4.472,-1.884 -2.214,-0.996 -4.375,-2.1 -2.162,-1.104 -4.267,-2.313 -2.105,-1.208 -4.149,-2.518 -2.043,-1.311 -4.02,-2.719 -1.976,-1.409 -3.882,-2.913 -1.905,-1.504 -3.734,-3.1 -1.829,-1.595 -3.578,-3.279 -1.749,-1.683 -3.413,-3.45 -1.664,-1.767 -3.24,-3.614 -1.575,-1.846 -3.058,-3.768 -1.484,-1.921 -2.871,-3.913 -1.387,-1.992 -2.675,-4.049 -1.288,-2.058 -2.473,-4.176 -1.186,-2.118 -2.266,-4.292 -1.08,-2.173 -2.053,-4.397 -0.972,-2.224 -1.834,-4.493 -0.862,-2.269 -1.612,-4.578 -0.75,-2.309 -1.386,-4.651 -0.636,-2.343 -1.156,-4.714 -0.521,-2.37 -0.924,-4.764 -0.403,-2.394 -0.689,-4.804 -0.286,-2.41 -0.453,-4.832 -0.167,-2.422 -0.215,-4.848 -0.049,-2.427 0.022,-4.853 0.071,-2.427 0.261,-4.847 0.189,-2.419 0.497,-4.827 0.308,-2.408 0.734,-4.798 0.425,-2.389 0.968,-4.755 0.542,-2.366 1.199,-4.703 0.658,-2.336 1.429,-4.638 0.772,-2.301 1.655,-4.562 0.883,-2.261 1.876,-4.476 0.993,-2.215 2.093,-4.378 1.101,-2.164 2.306,-4.271 1.205,-2.107 2.512,-4.152 1.307,-2.046 2.712,-4.025 1.406,-1.979 2.907,-3.886 1.5,-1.908 3.093,-3.74 1.593,-1.832 3.273,-3.583 1.681,-1.752 3.445,-3.419 1.764,-1.667 3.608,-3.245 1.844,-1.579 3.763,-3.065 1.919,-1.486 3.909,-2.877 1.989,-1.39 4.045,-2.681 2.055,-1.292 4.171,-2.481 2.117,-1.189 4.288,-2.272 2.172,-1.084 4.395,-2.06 2.222,-0.976 4.49,-1.842 2.267,-0.866 4.575,-1.62 2.307,-0.753 4.649,-1.393 2.341,-0.64 4.711,-1.164 2.37,-0.524 4.763,-0.931 2.393,-0.408 4.803,-0.697 2.41,-0.29 4.831,-0.461 z"
     id="path38" />
  <path
     fill="#fefefe"
     d="m 843.971,192.836 c 1.08,0.888 2.204,2.078 3.521,2.546 l -2.261,-3.474 0.082,-0.362 c 1.553,1.249 3.019,2.511 4.426,3.923 2.259,0.435 5.076,0.789 6.494,2.792 -0.859,0.654 -1.293,0.899 -2.464,0.834 -0.81,-0.044 -1.827,-0.483 -2.605,-0.739 -1.57,0.483 -2.147,1.093 -2.915,2.553 -0.645,1.228 -1.239,2.462 -1.548,3.819 l 0.515,0.688 c 1.196,0.063 2.55,-0.09 3.544,-0.856 0.566,-0.435 0.692,-0.629 1.119,-1.134 l 0.038,-1.195 -0.415,-0.354 -1.026,0.956 c -0.796,-0.772 -0.609,-0.708 -0.7,-1.733 l 0.716,-0.58 c 1.353,0.23 2.344,0.816 3.52,1.477 0.177,-0.123 0.349,-0.251 0.529,-0.369 0.618,-0.403 1.033,-0.56 1.734,-0.733 0.852,0.53 1.716,0.673 1.865,1.766 0.036,0.259 0.002,0.524 0.003,0.785 0.776,0.603 1.37,0.762 2.282,1.053 4.151,1.323 7.195,8.245 9.012,11.922 1.165,2.356 2.381,7.614 3.948,9.295 h 0.752 c -0.421,1.218 -1.004,1.707 -1.876,2.606 -0.294,1.505 -0.213,1.565 0.461,2.958 0.964,0.702 1.879,1.292 2.917,1.878 2.586,1.458 3.789,7.919 4.568,10.858 -1.562,1.428 -3.844,2.989 -3.837,5.316 0.01,3.202 5.571,7.416 7.582,10.046 -0.625,2.712 -1.129,7.048 -3.741,8.629 -0.54,0.328 -1.08,0.401 -1.68,0.309 l -1.838,2.342 c 0.103,1.867 0.479,4.275 0.162,6.107 -1.154,6.677 -10.418,10.624 -13.453,20.385 0.987,2.971 1.83,5.957 2.642,8.98 -5.013,5.697 -10.94,10.85 -14.012,17.94 -0.896,2.07 -2.083,8.493 -3.677,9.446 -1.103,0.66 -3.283,0.515 -4.449,0.145 -9.351,-2.965 -9.388,-42.14 -14.231,-51.977 -0.942,-1.914 -2.649,-4.217 -4.888,-4.671 -2.482,-0.503 -4.287,0.801 -6.361,1.942 -2.093,-0.004 -4.402,0.129 -6.457,-0.282 -5.527,-1.106 -8.689,-5.35 -11.503,-9.823 -0.088,-5.002 0.041,-9.783 -0.711,-14.756 1.487,-3.279 3.089,-6.479 4.508,-9.795 2.397,-0.93 4.574,-2.886 5.689,-5.192 -0.211,-1.321 -0.294,-0.681 0.26,-1.916 -0.062,-0.127 -0.136,-0.249 -0.188,-0.381 -2.092,-5.337 3.064,-9.501 5.858,-13.337 1.094,-1.503 1.878,-3.29 2.685,-4.961 -2.265,-5.516 -2.471,-5.223 -7.325,-8.231 -1.401,-0.868 -2.106,-2.068 -2.502,-3.64 l 0.588,-0.808 c 3.753,-0.725 9.223,2.368 12.685,3.878 1.123,2.546 -0.32,7.242 -0.815,9.915 0.72,0.868 1.276,1.061 2.331,1.418 0.717,-0.998 -0.455,-1.36 -0.415,-2.724 0.4,-0.256 1.194,-0.75 1.541,-1.037 1.498,-1.241 1.48,-4.443 1.795,-6.313 0.3,-0.075 0.603,-0.146 0.902,-0.226 2.395,-0.638 2.901,-1.853 4.084,-3.9 l -1.946,-1.106 c -3.03,-1.879 -3.412,-3.465 -4.279,-6.85 3.142,-3.141 6.193,-6.897 11.042,-6.939 2.557,-0.021 5.17,0.642 7.718,0.887 z"
     id="path39" />
  <path
     fill="#fefefe"
     d="m 843.971,192.836 c 1.08,0.888 2.204,2.078 3.521,2.546 l -2.261,-3.474 0.082,-0.362 c 1.553,1.249 3.019,2.511 4.426,3.923 2.259,0.435 5.076,0.789 6.494,2.792 -0.859,0.654 -1.293,0.899 -2.464,0.834 -0.81,-0.044 -1.827,-0.483 -2.605,-0.739 -1.57,0.483 -2.147,1.093 -2.915,2.553 -0.645,1.228 -1.239,2.462 -1.548,3.819 l 0.515,0.688 c 1.196,0.063 2.55,-0.09 3.544,-0.856 0.566,-0.435 0.692,-0.629 1.119,-1.134 l 0.038,-1.195 -0.415,-0.354 -1.026,0.956 c -0.796,-0.772 -0.609,-0.708 -0.7,-1.733 l 0.716,-0.58 c 1.353,0.23 2.344,0.816 3.52,1.477 0.177,-0.123 0.349,-0.251 0.529,-0.369 0.618,-0.403 1.033,-0.56 1.734,-0.733 0.852,0.53 1.716,0.673 1.865,1.766 0.036,0.259 0.002,0.524 0.003,0.785 0.776,0.603 1.37,0.762 2.282,1.053 4.151,1.323 7.195,8.245 9.012,11.922 1.165,2.356 2.381,7.614 3.948,9.295 h 0.752 c -0.421,1.218 -1.004,1.707 -1.876,2.606 -0.294,1.505 -0.213,1.565 0.461,2.958 0.964,0.702 1.879,1.292 2.917,1.878 2.586,1.458 3.789,7.919 4.568,10.858 -1.562,1.428 -3.844,2.989 -3.837,5.316 0.01,3.202 5.571,7.416 7.582,10.046 -0.625,2.712 -1.129,7.048 -3.741,8.629 -0.54,0.328 -1.08,0.401 -1.68,0.309 l -1.838,2.342 c -1.476,-0.219 -3.055,-0.399 -4.471,-0.884 -1.834,-0.628 -2.445,-1.915 -3.176,-3.545 -0.271,-0.024 -0.543,-0.037 -0.813,-0.073 -1.703,-0.231 -2.661,-0.934 -3.676,-2.267 -1.717,-2.254 -2.134,-5.532 -1.741,-8.266 -0.015,-0.041 -0.023,-0.086 -0.045,-0.125 -0.945,-1.671 -2.052,-3.267 -2.622,-5.121 -0.641,-2.088 -0.282,-5.356 -1.389,-7.038 -1.861,0.014 -3.584,-0.173 -5.42,-0.472 -2.309,0.033 -4.131,-0.505 -6.31,-1.159 -0.52,0.45 -1.079,0.998 -1.75,1.213 -2.007,0.643 -5.145,0.196 -6.891,-0.994 -3.292,-2.245 -3.547,-6.832 -4.103,-10.409 -6.289,0.624 -10.371,2.908 -15.76,5.856 -1.212,0.663 -2.754,1.748 -4.064,2.076 -1.318,0.329 -3.178,-0.134 -4.51,-0.343 -0.211,-1.321 -0.294,-0.681 0.26,-1.916 -0.062,-0.127 -0.136,-0.249 -0.188,-0.381 -2.092,-5.337 3.064,-9.501 5.858,-13.337 1.094,-1.503 1.878,-3.29 2.685,-4.961 -2.265,-5.516 -2.471,-5.223 -7.325,-8.231 -1.401,-0.868 -2.106,-2.068 -2.502,-3.64 l 0.588,-0.808 c 3.753,-0.725 9.223,2.368 12.685,3.878 1.123,2.546 -0.32,7.242 -0.815,9.915 0.72,0.868 1.276,1.061 2.331,1.418 0.717,-0.998 -0.455,-1.36 -0.415,-2.724 0.4,-0.256 1.194,-0.75 1.541,-1.037 1.498,-1.241 1.48,-4.443 1.795,-6.313 0.3,-0.075 0.603,-0.146 0.902,-0.226 2.395,-0.638 2.901,-1.853 4.084,-3.9 l -1.946,-1.106 c -3.03,-1.879 -3.412,-3.465 -4.279,-6.85 3.142,-3.141 6.193,-6.897 11.042,-6.939 2.557,-0.021 5.17,0.642 7.718,0.887 z"
     id="path40" />
  <path
     fill="#0f509f"
     d="m 849.714,227.254 c 1.866,-0.671 3.874,-1.526 5.827,-1.86 1.273,-0.217 3.171,0.047 4.333,-0.538 2.97,-1.495 2.003,-5.035 6.054,-3.571 0.698,0.86 1.128,1.227 0.794,2.438 -0.829,3.002 -4.613,3.551 -5.576,5.933 q 1.059,0.461 2.093,0.976 c -0.342,1.13 -0.349,1.229 -1.273,1.949 -1.47,-0.356 -2.656,-2.014 -3.671,-3.106 l -2.992,2.86 0.585,0.84 c 0.439,0.637 0.89,1.251 1.341,1.881 1.252,1.747 1.243,4.093 2.564,5.752 1.38,1.066 2.467,1.874 2.7,3.742 0.246,1.972 -0.066,3.977 -0.013,5.956 1.201,1.801 2.311,3.352 3.943,4.786 1.268,0.577 2.019,0.868 2.625,2.192 0.927,2.025 1.206,4.527 1.887,6.666 1.623,2.795 4.86,3.003 7.596,4.166 l -1.838,2.342 c -1.476,-0.219 -3.055,-0.399 -4.471,-0.884 -1.834,-0.628 -2.445,-1.915 -3.176,-3.545 -0.271,-0.024 -0.543,-0.037 -0.813,-0.073 -1.703,-0.231 -2.661,-0.934 -3.676,-2.267 -1.717,-2.254 -2.134,-5.532 -1.741,-8.266 -0.015,-0.041 -0.023,-0.086 -0.045,-0.125 -0.945,-1.671 -2.052,-3.267 -2.622,-5.121 -0.641,-2.088 -0.282,-5.356 -1.389,-7.038 -1.861,0.014 -3.584,-0.173 -5.42,-0.472 -2.309,0.033 -4.131,-0.505 -6.31,-1.159 -0.52,0.45 -1.079,0.998 -1.75,1.213 -2.007,0.643 -5.145,0.196 -6.891,-0.994 -3.292,-2.245 -3.547,-6.832 -4.103,-10.409 -6.289,0.624 -10.371,2.908 -15.76,5.856 -1.212,0.663 -2.754,1.748 -4.064,2.076 -1.318,0.329 -3.178,-0.134 -4.51,-0.343 -0.211,-1.321 -0.294,-0.681 0.26,-1.916 2.413,-2.158 4.707,-4.025 7.497,-5.673 1.225,0.383 0.664,0.121 1.694,0.762 3.365,-2.344 1.672,-9.009 7.502,-8.664 3.514,2.445 5.194,2.417 9.372,2.121 1.433,1.333 2.284,1.835 2.863,3.735 l -0.203,0.375 c 1.182,3.431 3.824,5.793 7.069,7.291 2.687,1.241 5.574,1.812 8.44,0.96 l 0.719,-0.812 c -0.456,-1.865 -1.858,-3.155 -3.522,-4.111 -3.249,-1.864 -6.806,1.179 -9.893,0.139 -0.008,-1.174 -0.207,-0.691 0.359,-1.405 0.863,-1.088 1.77,-2.048 1.605,-3.542 -0.183,-1.656 -1.075,-2.447 -2.133,-3.574 -0.453,-0.483 -0.891,-0.982 -1.338,-1.47 l 0.206,-0.762 c 1.025,-0.48 1.339,-0.827 2.445,-0.295 1.939,0.934 3.948,2.702 5.728,3.959 l -0.081,0.786 0.892,-0.198 z"
     id="path41" />
  <path
     fill="#0f509f"
     d="m 829.49,205.738 0.642,-0.312 c 1.476,-0.727 2.636,-1.211 3.618,-2.555 0.207,-1.812 -0.714,-2.798 -1.769,-4.227 0.721,-0.743 2.353,-1.19 3.432,-1.017 0.284,0.046 0.54,0.197 0.811,0.296 -0.136,1.345 -0.622,1.833 -1.382,2.894 0.165,1.052 0.127,1.3 1.049,1.965 1.744,1.259 5.517,1.987 7.607,1.673 0.481,-0.072 1.016,-0.302 1.459,-0.467 l 0.772,0.701 c -0.01,1.268 -0.048,1.256 -0.861,2.239 -4.59,1.68 -8.67,-3.276 -13.432,-0.084 z"
     id="path42" />
  <path
     fill="#fefefe"
     d="m 738.793,196.069 c -3.043,-2.391 -7.517,0.168 -10.041,-2.554 0.99,-3.362 6.221,-5.271 9.11,-6.845 5.927,-3.23 16.339,-8.306 23.208,-6.058 1.338,0.438 2.134,1.164 2.653,2.49 0.382,0.977 0.5,2.026 -0.042,2.961 -0.133,0.229 -0.316,0.425 -0.474,0.637 1.898,1.146 4.424,2.333 5.159,4.589 0.32,0.983 0.163,1.944 0.054,2.944 -0.929,1.321 -1.63,1.923 -3.271,2.179 -2.187,0.34 -4.44,0.365 -6.639,0.641 1.266,1.823 2.371,3.589 3.328,5.593 1.341,0.735 3.269,1.418 3.948,2.769 -0.471,1.273 -0.952,2.429 -1.59,3.626 0.579,0.644 0.921,0.846 1.667,1.245 -1.14,2.918 -6.257,3.907 -8.518,6.313 -4.745,0.833 -9.148,2.041 -12.091,6.198 -2.043,2.887 -3.455,6.201 -5.801,8.891 -8.264,9.477 -6.974,2.779 -8.952,17.074 -0.21,1.517 -1.15,5.129 -2.84,5.541 0.058,-2.251 1.79,-4.189 1.023,-6.265 -2.461,-2.034 -5.674,-2.237 -8.525,-3.479 -1.437,-0.626 -2.976,-0.385 -4.496,-0.259 -1.242,3.488 -3.946,5.517 -5.135,8.714 1.199,1.755 3.333,0.265 2.778,3.56 -0.19,1.13 -1.015,2.108 -1.953,2.728 -1.058,0.698 -2.341,0.923 -3.555,0.52 -2.832,-0.941 -5.22,-5.503 -6.185,-8.11 -3.339,-9.024 0.107,-20.525 4.121,-28.783 5.152,-10.598 12.072,-21.199 22.919,-26.524 2.5,1.386 5.859,3.444 8.832,2.784 1.134,-0.252 1.762,-0.772 2.55,-1.579 -0.991,-0.622 -0.825,-0.562 -1.242,-1.541 z"
     id="path43" />
  <path
     fill="#0f509f"
     d="m 738.793,196.069 c 1.042,-1.822 2.086,-6.336 3.588,-7.385 1.23,-0.86 2.814,-0.865 3.965,-1.88 0.659,-0.581 1.28,-1.197 1.955,-1.774 0.974,-0.14 1.606,-0.179 2.577,0.063 1.891,0.472 3.068,0.67 5.021,0.366 0.183,-0.029 0.366,-0.064 0.548,-0.095 -0.381,0.898 -0.713,1.921 -1.222,2.749 0.962,1.282 2.045,2.081 1.927,3.713 -1.437,1.108 -2.886,2.138 -4.052,3.546 2.058,-0.132 4.23,-0.131 6.239,-0.601 -0.603,1.417 -1.121,2.869 -2.705,3.45 -2.121,0.778 -4.35,-0.004 -6.286,1.429 -0.692,1.408 -0.943,2.724 -1.221,4.248 l -0.6,0.406 c -1.801,1.239 -5.137,4.949 -6.954,4.999 l -1.61,-1.266 c -1.747,0.235 -3.285,0.336 -5.046,0.206 l -0.648,-0.519 c 0.627,-1.883 6.071,-7.237 7.694,-9.188 l -0.353,-0.67 -1.575,-0.256 c -0.991,-0.622 -0.825,-0.562 -1.242,-1.541 z"
     id="path44" />
  <path
     fill="#fefefe"
     d="m 755.225,188.113 c 0.962,1.282 2.045,2.081 1.927,3.713 -1.437,1.108 -2.886,2.138 -4.052,3.546 -0.937,0.308 -2.155,0.48 -3.147,0.345 -1.506,-0.206 -3.498,-1.122 -4.369,-2.393 -0.422,-0.616 -0.232,-0.559 -0.05,-1.4 2.409,-2.569 6.464,-2.874 9.691,-3.811 z"
     id="path45" />
  <path
     fill="#0f509f"
     d="m 756.447,185.364 c 1.861,0.123 3.41,0.139 5.069,1.049 l 0.1,0.372 c -1.205,0.308 -2.006,0.286 -2.859,1.238 l 0.482,1.064 0.633,0.131 c 1.862,0.403 3.551,0.677 4.686,2.347 0.021,1.163 0.154,1.135 -0.508,2.195 -1.486,0.127 -3.55,0.032 -4.711,1.011 -2.009,0.47 -4.181,0.469 -6.239,0.601 1.166,-1.408 2.615,-2.438 4.052,-3.546 0.118,-1.632 -0.965,-2.431 -1.927,-3.713 0.509,-0.828 0.841,-1.851 1.222,-2.749 z"
     id="path46" />
  <path
     fill="#fefefe"
     d="m 743.825,269.195 c 1.754,0.113 2.588,2.107 4.14,2.886 0.944,0.474 9.026,1.542 11.307,2.193 q 0.862,4.724 1.925,9.406 c 4.936,3.377 9.644,6.29 15.23,8.463 1.228,2.449 2.28,4.928 3.311,7.463 -3.18,9.608 -10.464,9.409 -10.879,21.199 -6.417,6.626 -10.813,10.717 -14.4,19.611 l 0.321,0.783 -0.36,0.753 c -1.024,3.615 -0.062,3.693 0.262,7.177 l -0.867,0.307 c -2.025,-0.567 -3.916,-1.368 -5.585,-2.679 -10.036,-7.881 -5.133,-24.714 -6.273,-35.525 l -0.111,-0.999 c -5.468,-4.277 -12.084,-8.424 -13.648,-15.677 -1.537,-7.123 0.037,-12.7 3.789,-18.74 l 0.081,-6.594 c 4.093,0.519 7.677,0.76 11.757,-0.027 z"
     id="path47" />
  <path
     fill="#fefefe"
     d="m 773.232,182.778 c 2.762,-2.877 4.736,-2.413 7.37,-4.379 1.715,-1.282 2.32,-3.268 4.417,-4.241 1.094,0.284 1.757,0.945 2.614,1.646 1.792,-0.942 2.682,-2.335 4.703,-2.628 q 2.744,1.455 5.456,2.969 c 0.872,-0.859 1.488,-1.824 2.821,-1.87 1.53,-0.054 3.41,0.59 4.681,1.421 0.312,1.02 0.52,1.099 0.147,2.148 -1.128,-0.027 -2.121,-0.208 -3.221,-0.449 l -0.575,0.401 c 0.492,1.137 0.725,1.197 1.669,1.942 0.894,0.705 1.983,1.463 2.261,2.644 0.318,1.35 0.036,1.799 -0.632,2.881 -1.058,0.45 -2.047,0.803 -3.163,1.079 -0.119,0.961 -0.141,1.84 -0.143,2.806 -0.648,1.015 -1.466,1.748 -2.684,1.98 -0.862,0.164 -1.811,0.127 -2.687,0.121 -3.196,2 -10.539,5.694 -12.883,8.05 -2.727,2.742 -2.876,7.865 -6.889,9.279 -1.087,-0.887 -1.414,-1.978 -1.572,-3.368 -0.327,-2.881 1.631,-10.256 2.992,-12.954 l 0.368,-0.745 c 0.636,-0.312 1.779,-1.629 2.127,-2.245 0.69,-1.218 0.537,-1.678 0.235,-2.934 l -0.965,-0.41 c -1.422,0.38 -1.918,1.084 -2.796,2.174 -1.157,-1.836 -2.299,-3.616 -3.651,-5.318 z"
     id="path48" />
  <path
     fill="#fefefe"
     d="m 718.975,252.287 0.603,0.521 c 0.046,0.198 0.081,0.398 0.137,0.592 0.65,2.284 1.675,2.872 3.599,4.031 1.428,8.363 6.158,9.543 7.094,13.562 0.309,1.327 0.059,2.444 -0.556,3.587 -0.244,-0.695 -0.484,-1.515 -0.867,-2.144 -0.561,-0.922 -1.217,-1.048 -2.187,-1.288 -0.698,-0.172 -1.381,-0.295 -2.026,-0.636 -3.777,-1.998 -2.634,-7.67 -3.378,-11.211 -1.046,-1.295 -1.416,-1.275 -2.961,-1.743 l -0.419,-0.795 c 0.033,-1.759 0.266,-2.864 0.961,-4.476 z"
     id="path49" />
  <path
     fill="#fefefe"
     d="m 726.837,259.023 c 2.722,0.218 5.469,0.727 8.174,1.121 1.049,0.982 1.925,1.737 3.303,2.21 1.747,0.6 3.499,1.034 4.582,2.572 -0.783,1.366 -1.392,1.42 -2.796,2.062 -2.286,-0.128 -6.143,-0.761 -7.839,-2.405 -0.21,-0.203 -0.409,-0.418 -0.614,-0.627 -1.96,-0.217 -2.897,-0.287 -4.373,-1.623 -0.5,-1.268 -0.587,-1.955 -0.437,-3.31 z"
     id="path50" />
  <path
     fill="#fefefe"
     d="m 234.291,667.708 c 23.786,-3.225 52.719,6.387 71.9,20.139 23.314,16.715 40.425,42.077 45.091,70.611 4.03,24.639 -0.163,51.522 -12.423,73.361 -3.562,6.345 -8.094,12.193 -12.361,18.082 q -1.822,-3.16 -3.754,-6.253 c -14.005,-22.014 -37.053,-30.955 -61.494,-36.416 -0.759,-2.761 -1.177,-5.605 -1.669,-8.423 9.638,-7.801 14.153,-16.814 18.557,-28.135 0.15,-0.062 0.302,-0.123 0.452,-0.187 l 0.748,-0.326 c 4.397,-1.893 7.014,-4.633 8.887,-9.101 1.986,-4.738 2.837,-10.721 0.679,-15.545 -0.768,-1.717 -1.395,-2.287 -3.15,-2.939 -0.519,-0.193 -2.089,-0.652 -2.304,-1.222 -0.37,-0.977 0.049,-4.11 0.069,-5.358 0.148,-9.102 -0.266,-18.006 -4.508,-26.271 -5.18,-10.091 -13.435,-15.607 -23.995,-19.007 -5.69,-1.162 -11.247,-1.579 -17.018,-0.747 -10.365,1.493 -19.337,6.214 -25.642,14.686 -7.131,9.579 -10.666,23.732 -8.883,35.588 -1.366,1.382 -2.917,2.876 -3.841,4.599 -2.393,4.458 -1.777,10.327 -0.413,15.015 1.604,5.508 4.157,8.123 8.965,10.798 3.17,13.485 7.868,21.192 18.719,29.594 l 0.12,6.839 -0.968,0.238 c -27.196,6.69 -49.844,15.762 -64.961,40.738 -15.488,-16.782 -25.14,-39.37 -27.177,-62.068 -2.536,-28.253 6.697,-58.137 25.032,-79.833 19.596,-23.188 45.225,-35.95 75.342,-38.457 z"
     id="path51" />
  <path
     fill="#fefefe"
     d="m 262.103,127.209 c 26.976,-1.507 55.084,8.839 75.491,26.271 20.126,17.193 33.939,43.25 35.791,69.773 q 0.146,2.036 0.209,4.076 0.063,2.04 0.043,4.081 -0.021,2.041 -0.124,4.079 -0.104,2.039 -0.29,4.071 -0.187,2.033 -0.456,4.056 -0.269,2.023 -0.621,4.034 -0.351,2.01 -0.785,4.005 -0.433,1.994 -0.947,3.97 -0.514,1.975 -1.108,3.927 -0.595,1.953 -1.268,3.88 -0.673,1.927 -1.425,3.824 -0.751,1.898 -1.579,3.763 -0.829,1.866 -1.732,3.696 -0.904,1.83 -1.881,3.622 -0.978,1.792 -2.027,3.542 -1.05,1.751 -2.17,3.457 c -4.375,6.562 -9.56,12.433 -14.702,18.393 -4.592,-21.418 -21.234,-35.094 -41.246,-42.281 -4.938,-1.774 -12.824,-3.324 -16.712,-6.805 -0.781,-2.907 4.813,-6.824 6.826,-8.868 8.03,-8.151 14.181,-19.843 14.681,-31.405 l 0.024,-0.673 c 5.535,-5.693 9.21,-11.203 9.565,-19.445 0.534,-12.394 -5.07,-25.041 -13.407,-34.014 -8.041,-8.654 -18.86,-13.882 -30.694,-14.293 -10.92,-0.055 -22.208,2.947 -31.52,8.7 -10.592,6.544 -18.425,16.768 -21.275,28.949 -2.627,11.225 -0.173,19.395 5.761,29.007 -0.012,0.401 -0.029,0.803 -0.023,1.205 0.234,16.697 9.235,22.98 20.013,33.948 2.135,2.173 3.279,4.107 3.253,7.178 -3.517,3.443 -11.934,5.158 -16.552,7.312 -3.457,1.612 -6.836,3.507 -10.075,5.522 -14.521,9.033 -25.721,21.837 -29.692,38.733 q -1.108,-0.755 -2.133,-1.619 C 172.33,290.357 161.973,258.633 160.655,236.877 q -0.08,-1.257 -0.129,-2.515 -0.049,-1.258 -0.068,-2.517 -0.018,-1.259 -0.005,-2.519 0.013,-1.259 0.057,-2.517 0.044,-1.259 0.119,-2.516 0.075,-1.257 0.181,-2.511 0.106,-1.255 0.243,-2.507 0.136,-1.252 0.304,-2.5 0.168,-1.248 0.366,-2.491 0.198,-1.244 0.427,-2.482 0.229,-1.238 0.489,-2.47 0.259,-1.233 0.549,-2.458 0.289,-1.226 0.609,-2.444 0.32,-1.217 0.67,-2.427 0.35,-1.21 0.729,-2.411 0.38,-1.2 0.788,-2.391 0.409,-1.191 0.848,-2.372 0.438,-1.18 0.905,-2.35 0.467,-1.169 0.963,-2.326 0.496,-1.158 1.02,-2.303 0.524,-1.145 1.077,-2.276 0.552,-1.132 1.132,-2.25 0.58,-1.117 1.187,-2.221 0.608,-1.103 1.242,-2.19 0.634,-1.088 1.295,-2.16 0.662,-1.072 1.349,-2.127 0.687,-1.055 1.4,-2.093 0.713,-1.038 1.452,-2.058 0.738,-1.02 1.501,-2.021 0.764,-1.002 1.551,-1.984 0.788,-0.982 1.6,-1.945 0.812,-0.963 1.647,-1.905 c 19.53,-21.896 46.909,-33.712 75.95,-35.411 z"
     id="path52" />
  <path
     fill="#fefefe"
     d="m 281.601,186.361 c 1.262,0.778 1.797,2.052 2.45,3.358 4.308,8.616 2.5,24.579 6.217,29.081 1.677,2.031 4.001,0.777 6.311,0.967 -0.024,0.5 -0.012,0.709 -0.164,1.245 -0.681,2.411 -2.01,4.953 -2.999,7.269 -3.779,8.857 -7.867,16.576 -17.167,20.682 -6.657,2.939 -12.674,2.234 -19.286,-0.258 -0.153,-0.074 -0.31,-0.141 -0.46,-0.221 -9.881,-5.215 -12.693,-13.511 -16.088,-23.321 0.31,-0.58 0.601,-1.127 0.847,-1.736 1.428,-3.521 0.343,-6.426 -1.087,-9.74 q 2.141,-0.114 4.271,-0.354 c 15.494,-1.892 28.045,-15.437 37.155,-26.972 z"
     id="path53" />
  <path
     fill="#fefefe"
     d="m 271.078,813.265 c 0.812,0.252 1.512,0.669 2.232,1.119 1.292,0.807 2.252,1.668 2.59,3.212 -2.554,8.209 -26.124,23.547 -33.976,28.393 -11.136,-5.137 -20.258,-12.716 -29.198,-20.961 -1.322,-1.218 -2.945,-2.625 -3.852,-4.19 -0.672,-1.161 -0.507,-1.802 -0.135,-3.015 1.488,-1.627 3.53,-2.075 5.562,-2.763 8.543,8.596 17.245,15.324 27.448,21.781 10.608,-7.241 20.087,-14.646 29.329,-23.576 z"
     id="path54" />
  <path
     fill="#fefefe"
     d="m 283.76,262.253 c 5.409,2.255 11.067,3.014 16.403,5.729 -11.747,8.647 -23.46,15.517 -32.512,27.4 -6.766,-6.951 -13.73,-13.325 -21.377,-19.302 -3.124,-2.853 -6.949,-5.243 -10.229,-7.976 3.844,-2.077 7.942,-3.564 12.011,-5.135 6.882,7.556 13.426,16.552 18.974,25.127 6.274,-7.883 11.343,-17.313 16.73,-25.843 z"
     id="path55" />
  <path
     fill="#fefefe"
     d="m 252.979,254.251 c 4.149,0.927 8.183,2.466 12.414,3.007 0.299,0.039 0.6,0.066 0.899,0.101 4.234,0.498 7.995,-1.649 12.044,-1.322 l 0.285,1.029 c -0.993,4.262 -3.819,8.074 -6.231,11.644 -1.879,2.727 -3.76,5.132 -6.144,7.436 -5.385,-5.975 -11.069,-14.138 -13.267,-21.895 z"
     id="path56" />
  <path
     fill="#0f509f"
     d="m 234.902,907.318 c 0.17,0 0.342,-0.015 0.511,-10e-4 3.593,0.297 21.829,7.438 23.95,9.917 0.975,1.139 1.624,2.594 1.287,4.117 -0.598,2.693 -3.055,4.01 -5.289,5.189 -5.001,-0.276 -21.026,-6.38 -25.373,-9.414 -0.681,-1.229 -1.026,-2.545 -0.729,-3.948 0.598,-2.831 3.436,-4.363 5.643,-5.86 z"
     id="path57" />
  <path
     fill="#0f509f"
     d="m 111.233,818.846 c 1.924,0.106 4.485,0.902 5.734,2.478 1.103,1.394 1.297,2.765 1.019,4.466 -0.872,5.348 -9.169,16.628 -13.589,19.731 -0.785,-0.009 -1.606,-0.012 -2.379,-0.161 -1.649,-0.318 -3.4149,-1.28 -4.2045,-2.807 -0.7639,-1.478 -0.5909,-3.223 -0.1929,-4.776 1.4374,-5.609 8.6084,-16.035 13.6124,-18.931 z"
     id="path58" />
  <path
     fill="#0f509f"
     d="m 503.546,904.931 c 0.999,-0.024 1.823,0.024 2.756,0.39 1.624,0.639 2.64,1.869 3.259,3.466 0.55,1.419 0.275,2.657 -0.431,3.961 -2.635,4.867 -16.12,9.322 -21.404,10.899 -0.553,0.03 -0.902,0.064 -1.48,0.021 -1.688,-0.125 -3.253,-0.709 -4.234,-2.164 q -0.178,-0.266 -0.322,-0.552 -0.144,-0.285 -0.253,-0.586 -0.109,-0.301 -0.181,-0.612 -0.072,-0.312 -0.107,-0.63 -0.034,-0.318 -0.03,-0.638 0.005,-0.32 0.047,-0.637 0.043,-0.317 0.123,-0.627 0.08,-0.309 0.197,-0.607 c 2.027,-5.189 16.789,-9.536 22.06,-11.684 z"
     id="path59" />
  <path
     fill="#0f509f"
     d="m 275.827,922.934 c 0.374,-0.038 0.749,-0.074 1.125,-0.084 4.585,-0.125 20.137,3.633 23.361,6.77 1.194,1.163 1.739,2.308 1.671,4.011 -0.084,2.113 -1.441,3.745 -2.867,5.15 -6.211,-0.205 -20.032,-2.483 -24.646,-6.519 -1.216,-1.063 -1.863,-2.289 -1.83,-3.942 0.044,-2.163 1.745,-3.98 3.186,-5.386 z"
     id="path60" />
  <path
     fill="#0f509f"
     d="m 91.4906,893.987 c 0.7738,-0.079 1.5374,-0.146 2.3164,-0.1 1.4774,0.087 3.1273,0.521 4.0062,1.834 1.3115,1.959 9.3948,20.073 9.1488,21.484 -0.359,2.058 -2.075,3.268 -3.657,4.425 -0.569,0.01 -1.136,0.017 -1.705,-0.011 -2.1685,-0.11 -3.6208,-1.372 -5.0049,-2.92 -3.8897,-4.351 -9.1926,-14.116 -8.4762,-19.94 0.2772,-2.255 1.7323,-3.417 3.3717,-4.772 z"
     id="path61" />
  <path
     fill="#0f509f"
     d="m 317.165,933.063 c 6.147,-0.506 21.464,-0.5 26.066,3.324 1.069,0.887 1.557,1.899 1.567,3.302 0.014,2.075 -1.577,4.268 -2.958,5.673 -0.39,0.074 -0.782,0.145 -1.177,0.193 -4.909,0.6 -20.916,-0.922 -24.565,-4.103 -1.035,-0.903 -1.469,-1.792 -1.497,-3.183 -0.041,-2.028 1.264,-3.807 2.564,-5.206 z"
     id="path62" />
  <path
     fill="#0f509f"
     d="m 115.415,925.377 c 0.075,0.006 0.151,0.014 0.226,0.019 0.331,0.023 0.662,0.033 0.992,0.067 3.462,0.357 20.32,7.781 22.33,10.331 0.885,1.123 1.292,2.336 1.021,3.776 -0.414,2.202 -1.611,3.221 -3.375,4.437 -6.692,-0.264 -18.179,-4.02 -22.892,-8.928 -1.234,-1.285 -2.152,-2.937 -1.867,-4.785 0.34,-2.204 1.943,-3.577 3.565,-4.917 z"
     id="path63" />
  <path
     fill="#0f509f"
     d="m 424.061,930.663 c 0.792,0.03 1.637,0.184 2.359,0.529 1.185,0.566 1.979,2.208 2.388,3.398 0.545,1.586 0.67,3.731 -0.365,5.16 -2.333,3.222 -19.515,4.542 -23.905,4.926 -2.178,-0.757 -4.152,-2.367 -5.221,-4.41 -0.161,-1.268 -0.121,-1.942 0.607,-3.036 3.324,-4.995 18.42,-5.646 24.137,-6.567 z"
     id="path64" />
  <path
     fill="#0f509f"
     d="m 214.015,922.442 c 1.088,-10e-4 2.134,-0.064 3.15,0.41 1.535,0.717 3.337,2.74 3.888,4.351 0.367,1.076 0.374,2.108 -0.22,3.107 -2.499,4.199 -16.197,8.304 -21.057,9.888 -0.579,0.086 -1.177,0.202 -1.767,0.151 -1.6,-0.139 -3.622,-1.285 -4.503,-2.622 -0.825,-1.252 -0.876,-2.613 -0.389,-4.005 1.757,-5.026 8.614,-6.034 12.904,-7.687 2.709,-1.043 5.364,-2.363 7.994,-3.593 z"
     id="path65" />
  <path
     fill="#0f509f"
     d="m 92.5251,854.511 c 0.9232,-0.046 1.87,-0.126 2.7865,0.043 2.6038,0.481 3.7145,2.389 5.1134,4.4 -0.7386,2.642 -1.5347,5.281 -2.0229,7.984 -0.7721,4.276 -0.8698,9.851 -2.5509,13.847 -0.4388,1.043 -1.2175,1.758 -2.0207,2.526 -1.0441,-0.072 -2.1032,-0.135 -3.137,-0.303 -1.5756,-0.255 -2.922,-1.049 -3.8014,-2.404 -2.7734,-4.275 -1.1477,-10.664 -0.0159,-15.268 0.9898,-4.027 1.9049,-8.575 5.6489,-10.825 z"
     id="path66" />
  <path
     fill="#0f509f"
     d="m 463.226,921.038 c 1.106,-0.192 2.741,-0.367 3.792,0.156 1.137,0.566 2.509,2.435 2.922,3.636 0.464,1.348 0.405,2.297 -0.222,3.579 -2.58,5.272 -15.653,7.222 -20.892,8.514 -1.017,0.08 -2.316,0.238 -3.28,-0.173 -1.501,-0.639 -3.372,-2.856 -3.813,-4.415 -0.364,-1.289 -0.349,-2.343 0.349,-3.52 2.289,-3.863 16.477,-6.429 21.144,-7.777 z"
     id="path67" />
  <path
     fill="#0f509f"
     d="m 376.241,935.775 c 2.501,-0.154 5.295,-0.62 7.623,0.499 1.782,0.856 3.728,2.396 4.137,4.445 0.231,1.157 -0.164,2.13 -0.9,2.994 -3.595,4.222 -13.684,2.863 -18.725,2.967 -2.363,0.135 -5.033,0.55 -7.22,-0.54 -1.841,-0.917 -3.646,-2.575 -4.097,-4.658 -0.227,-1.052 -0.001,-2.183 0.681,-3.023 3.347,-4.122 13.641,-2.572 18.501,-2.684 z"
     id="path68" />
  <path
     fill="#0f509f"
     d="m 93.3065,323.044 c 1.6081,-0.1 3.8156,-0.464 5.3221,0.273 0.7073,0.345 1.3402,0.751 1.5484,1.524 0.847,3.137 0.526,7.083 0.8,10.364 0.402,4.796 1.565,9.254 2.949,13.849 l -4.4008,3.025 c -0.6925,0.136 -1.3129,0.156 -2.0166,0.08 -1.5577,-0.167 -2.7373,-1.106 -3.631,-2.338 -3.8421,-5.299 -4.7882,-16.066 -3.653,-22.383 0.4334,-2.411 1.1333,-3.093 3.0819,-4.394 z"
     id="path69" />
  <path
     fill="#0f509f"
     d="m 168.781,935.21 c 3.376,-0.259 7.215,-0.839 10.3,0.891 1.198,0.672 2.319,1.729 2.487,3.169 0.164,1.413 -0.649,2.765 -1.6,3.736 -3.728,3.809 -10.186,3.453 -15.093,3.534 -3.583,0.165 -7.139,0.701 -10.271,-1.454 -1.279,-0.879 -2.256,-2.108 -2.355,-3.719 -0.075,-1.207 0.359,-2.337 1.105,-3.271 3.108,-3.893 10.885,-2.569 15.427,-2.886 z"
     id="path70" />
  <path
     fill="#0f509f"
     d="m 113.536,288.881 c 1.796,0.008 4.721,0.622 5.986,2.03 0.889,0.989 1.142,2.048 0.979,3.332 -0.466,3.673 -12.75,16.371 -15.827,18.947 -0.45,0.102 -0.62,0.159 -1.146,0.162 -1.68,0.008 -3.387,-0.911 -4.5318,-2.112 -1.0979,-1.152 -1.6248,-2.606 -1.4746,-4.203 0.3945,-4.194 12.2734,-15.258 16.0144,-18.156 z"
     id="path71" />
  <path
     fill="#0f509f"
     d="m 109.916,360.884 c 0.817,0.133 0.999,0.1 1.712,0.607 2.794,1.984 14.912,15.981 15.394,18.729 -0.817,2.77 -2.882,3.929 -5.202,5.408 -5.413,-2.863 -12.09,-9.028 -15.465,-14.162 -1.167,-1.777 -2.177,-4.222 -1.514,-6.372 0.707,-2.294 3.124,-3.211 5.075,-4.21 z"
     id="path72" />
  <path
     fill="#0f509f"
     d="m 146.603,272.014 c 0.442,-0.023 0.669,-0.054 1.134,0.017 1.458,0.224 2.779,1.622 3.485,2.858 0.776,1.361 0.992,3.033 0.41,4.515 -1.737,4.429 -7.23,4.118 -10.956,5.352 -2.458,0.815 -4.882,1.837 -7.287,2.795 -0.997,-0.064 -1.876,-0.105 -2.801,-0.547 -1.268,-0.606 -2,-1.739 -2.404,-3.045 -0.423,-1.367 -0.217,-2.486 0.484,-3.73 2.427,-4.308 13.406,-6.768 17.935,-8.215 z"
     id="path73" />
</svg>
